<?xml version="1.0" encoding="UTF-8"?>
<!DOCTYPE svg  PUBLIC '-//W3C//DTD SVG 1.1//EN'  'http://www.w3.org/Graphics/SVG/1.1/DTD/svg11.dtd'>
<svg version="1.1" xmlns="http://www.w3.org/2000/svg">
<defs>
<font id="MatisseITC-Regular" horiz-adv-x="829">
<font-face font-family="Matisse ITC" font-weight="400" ascent="1556" bbox="-307 -473 2294 2062" cap-height="1696" descent="-492" panose-1="4 4 4 3 3 13 2 2 7 4" underline-position="-330" underline-thickness="233" unicode-range="U+0020-F002" units-per-em="2048" x-height="1372"/>
<missing-glyph d="M102 -362v1806h1024v-1806h-1024zM217 -248h795v1577h-795v-1577z" horiz-adv-x="1229"/>
<glyph d="M102 -362v1806h1024v-1806h-1024zM217 -248h795v1577h-795v-1577z" glyph-name=".notdef" horiz-adv-x="1229"/>
<glyph glyph-name=".null" horiz-adv-x="0"/>
<glyph glyph-name="nonmarkingreturn" horiz-adv-x="475"/>
<glyph glyph-name="space" horiz-adv-x="475" unicode=" "/>
<glyph d="M158 117q32 28 57 41.5t47 13.5q34 0 55 -28.5t21 -75.5t-41 -79t-102 -32q-51 0 -90 41.5t-39 95.5q0 56 32 95t103 67l22 -45q-51 -20 -75.5 -49t-24.5 -70q0 -33 20.5 -53.5t53.5 -20.5t52 16t19 44q0 15 -10 24t-27 9q-10 0 -22.5 -9t-30.5 -28zM338 1624l-117 -1307 h-20l-107 1307h244z" glyph-name="exclam" horiz-adv-x="406" unicode="!"/>
<glyph d="M168 1688l-10 -285h-70l-33 289zM348 1704l-24 -287l-70 -8l-21 283z" glyph-name="quotedbl" horiz-adv-x="410" unicode='"'/>
<glyph d="M694 848l-166 -8v-170l138 -21zM1145 868l-344 -16l-13 -223l312 -47l-8 -70l-310 18l-26 -493l-174 24l69 474l-123 8l-2 -459l-69 -2l-43 467l-357 18l21 172l323 -49l-14 144l-326 -15v60l320 47l-45 495l194 -4l-2 -469l183 27l57 395l59 -18l-20 -365l326 47z" glyph-name="numbersign" horiz-adv-x="1200" unicode="#"/>
<glyph d="M416 213q49 52 72.5 96t23.5 82q0 40 -23 90.5t-67 106.5zM360 920l-14 419q-39 -55 -58.5 -104.5t-19.5 -95.5q0 -49 22.5 -102t69.5 -117zM657 1626q-57 -41 -112.5 -86.5t-108.5 -95.5l-10 -604q115 -134 172 -239.5t57 -184.5q0 -96 -57 -180.5t-186 -178.5l-2 -118 l-11 4l-4 98q-70 -46 -110 -69t-49 -23q-12 0 -23.5 25.5t-26.5 84.5q57 19 108 49.5t95 73.5l-16 447q-155 127 -232.5 253t-77.5 251q0 115 68.5 220.5t206.5 205.5l-10 264h114l-4 -201q33 20 64 36.5t61 31.5l45 -33q18 -20 26.5 -26.5t14.5 -6.5q4 0 5.5 0.5t2.5 1.5z " glyph-name="dollar" horiz-adv-x="733" unicode="$"/>
<glyph d="M727 217q41 45 59.5 94.5t18.5 112.5q0 106 -21 186t-55 107q-37 -50 -56.5 -115t-19.5 -139q0 -68 18.5 -128.5t55.5 -117.5zM367 967q23 7 44 104t21 219q0 41 -15 78t-44 70q-26 -41 -37.5 -80.5t-11.5 -85.5q0 -121 11.5 -203.5t31.5 -101.5zM727 766 q84 -23 136 -101t52 -182q0 -97 -49 -184.5t-139 -148.5q-84 78 -128 159t-44 158q0 89 46 168.5t126 130.5zM1122 1604l-1024 -1575l-28 18l833 1616zM373 889q-80 39 -128 119t-48 174q0 79 45 163.5t131 165.5q81 -50 122.5 -125.5t41.5 -173.5q0 -61 -43.5 -147 t-120.5 -176z" glyph-name="percent" horiz-adv-x="1108" unicode="%"/>
<glyph d="M530 307l-32 989q-7 1 -18 2q-28 2 -38 2q-84 0 -133 -46.5t-49 -127.5q0 -61 27 -135t82 -164q-59 -80 -87 -149.5t-28 -130.5q0 -100 74.5 -164.5t201.5 -75.5zM774 1401l-98 -195q-28 23 -42.5 33.5t-26.5 17.5l-17 -947q20 4 30 5.5t19 1.5l4 -6q6 -9 18.5 -69 t49.5 -260q-39 -3 -58 -4t-35 -1h-34l-2 -129h-35l-4 132q-213 22 -327 142.5t-114 321.5q0 118 36 221t106 187q-16 24 -47 70q-127 185 -127 295q0 132 95.5 228.5t225.5 96.5q21 0 45 -2.5t53 -7.5l-4 115l127 6l-2 -160q35 -17 74.5 -39t89.5 -53z" glyph-name="ampersand" horiz-adv-x="793" unicode="&amp;"/>
<glyph d="M274 1704l-20 -299l-66 8l-28 279z" glyph-name="quotesingle" horiz-adv-x="410" unicode="'"/>
<glyph d="M618 -23l-96 -96q-209 235 -313.5 462.5t-104.5 447.5q0 205 76 397.5t266 449.5q20 -14 37 -30t31 -33q-115 -215 -172 -413t-57 -382q0 -190 82.5 -388.5t250.5 -414.5z" glyph-name="parenleft" horiz-adv-x="659" unicode="("/>
<glyph d="M154 -119l-97 96q168 217 251 414t83 377q0 189 -58 391t-173 416q20 22 36.5 37t32.5 26q186 -249 264 -445t78 -402q0 -218 -104.5 -446t-312.5 -464z" glyph-name="parenright" horiz-adv-x="659" unicode=")"/>
<glyph d="M485 1421l-36 -141l-154 90l39 -172l-127 -2l35 178l-148 -80l-28 129l153 7l-108 112l73 57l74 -153l64 194l104 -71l-129 -146z" glyph-name="asterisk" horiz-adv-x="545" unicode="*"/>
<glyph d="M983 489h-377v-460l-157 20l34 457l-358 -62v148l358 6q-5 81 -17.5 172t-33.5 199l160 30l6 -370l379 4z" glyph-name="plus" horiz-adv-x="1085" unicode="+"/>
<glyph d="M178 297q33 -74 49.5 -137.5t16.5 -118.5q0 -54 -13 -107t-38 -106l-95 33q14 34 20.5 69.5t6.5 73.5q0 61 -22.5 117.5t-63.5 97.5z" glyph-name="comma" horiz-adv-x="287" unicode=","/>
<glyph d="M590 762l-516 -10l6 77l493 74z" glyph-name="hyphen" horiz-adv-x="670" unicode="-"/>
<glyph d="M285 180l-148 -180l-125 174l125 135z" glyph-name="period" horiz-adv-x="291" unicode="."/>
<glyph d="M958 1661l-962 -1921l-33 16l838 2032z" glyph-name="slash" horiz-adv-x="936" unicode="/"/>
<glyph d="M506 -96q139 126 222 341t83 449q0 205 -81.5 393t-242.5 353q-114 -178 -166.5 -366.5t-52.5 -420.5q0 -205 65.5 -411.5t172.5 -337.5zM496 1632q201 -131 301 -344t100 -510q0 -281 -104 -540t-299 -465q-223 155 -332 399.5t-109 589.5q0 230 112.5 451t330.5 419z " glyph-name="zero" horiz-adv-x="950" unicode="0"/>
<glyph d="M311 1622q100 -140 148.5 -333.5t48.5 -452.5q0 -240 -41 -513t-123 -583q-62 163 -97.5 405.5t-35.5 513.5q0 155 31.5 330.5t91.5 356.5l-346 -175l-21 3z" glyph-name="one" horiz-adv-x="641" unicode="1"/>
<glyph d="M147 1661q322 -31 475.5 -167.5t153.5 -391.5q0 -179 -61.5 -336.5t-188.5 -300.5q-93 -107 -227.5 -219.5t-155.5 -139.5l387 -30l-24 -211q-139 20 -277.5 44.5t-277.5 53.5q299 307 451.5 562.5t152.5 449.5q0 144 -89.5 237t-227.5 93q-32 0 -57 -4.5t-46 -14.5z" glyph-name="two" horiz-adv-x="862" unicode="2"/>
<glyph d="M96 1599q47 15 92 22t91 7q187 0 299 -106.5t112 -284.5q0 -192 -217 -453l-10 -12q64 -90 96.5 -191.5t32.5 -211.5q0 -242 -160.5 -396.5t-460.5 -199.5q9 170 21.5 272.5t23.5 105.5l7 1q173 0 290 92.5t117 228.5q0 64 -25.5 133t-76.5 146q109 100 164 190t55 170 q0 99 -79 165t-200 66q-32 0 -63 -6.5t-64 -19.5z" glyph-name="three" horiz-adv-x="745" unicode="3"/>
<glyph d="M555 1393l-305 -547l201 -62zM680 1638l-105 -1847l-165 25l34 821l-421 80l575 932z" glyph-name="four" horiz-adv-x="774" unicode="4"/>
<glyph d="M211 1297q286 -2 441 -134.5t155 -376.5q0 -146 -53.5 -292.5t-159.5 -288.5q-94 -127 -215.5 -223t-276.5 -166l-32 55q225 134 355 351.5t130 455.5q0 197 -105.5 308.5t-291.5 111.5q-20 0 -45.5 -2t-55.5 -6l19 483h416l-5 -131l-264 -4z" glyph-name="five" horiz-adv-x="891" unicode="5"/>
<glyph d="M451 72q69 95 103 200t34 224q0 171 -57 280t-184 186q-4 -75 -5.5 -128.5t-1.5 -90.5q0 -172 28 -343.5t83 -327.5zM350 1098q192 -79 295 -225t103 -338q0 -188 -78.5 -374t-235.5 -372q-173 166 -261.5 398t-88.5 522q0 289 100.5 541.5t307.5 482.5 q-49 -147 -83.5 -301.5t-58.5 -333.5z" glyph-name="six" horiz-adv-x="811" unicode="6"/>
<glyph d="M756 1591l-471 -1714l-201 60l512 1482l-528 -84l-33 246z" glyph-name="seven" horiz-adv-x="760" unicode="7"/>
<glyph d="M326 -168q107 172 161 322.5t54 277.5q0 102 -37 190.5t-115 172.5q-82 -118 -126 -256.5t-44 -280.5q0 -111 27 -218t80 -208zM408 893q33 71 50 141.5t17 141.5q0 76 -17.5 145t-51.5 129q-44 -57 -66.5 -126t-22.5 -144q0 -72 23 -144t68 -143zM528 864 q90 -76 136.5 -177t46.5 -222q0 -175 -95 -368t-284 -400q-138 161 -206.5 319.5t-68.5 317.5q0 157 69.5 308t178.5 230q-67 63 -99 130t-32 145q0 110 55.5 235t159.5 246q121 -93 183.5 -208.5t62.5 -245.5q0 -87 -27 -165t-80 -145z" glyph-name="eight" horiz-adv-x="795" unicode="8"/>
<glyph d="M483 473q24 76 35.5 161t11.5 183q0 153 -19.5 289t-55.5 244q-84 -78 -125 -176t-41 -222q0 -141 46.5 -255.5t147.5 -223.5zM481 1563q139 -143 213 -332t74 -400q0 -286 -114 -575t-345 -590q71 214 108.5 367.5t43.5 257.5q-216 130 -318 268t-102 299q0 180 112 359 t328 346z" glyph-name="nine" horiz-adv-x="840" unicode="9"/>
<glyph d="M297 211l-92 -211l-168 152l123 163zM315 709l-118 -183l-160 152l121 143z" glyph-name="colon" horiz-adv-x="358" unicode=":"/>
<glyph d="M174 324q47 -74 69.5 -147t22.5 -150q0 -63 -7.5 -112.5t-22.5 -90.5l-152 55q27 41 40 89t13 108q0 49 -13 98.5t-40 101.5zM293 678l-133 -141q-17 20 -63 66t-64 75l127 121z" glyph-name="semicolon" horiz-adv-x="358" unicode=";"/>
<glyph d="M752 1374l-398 -629l363 -536l-17 -39l-643 553l637 663z" glyph-name="less" horiz-adv-x="799" unicode="&lt;"/>
<glyph d="M948 604l-6 -102l-766 -51l-61 153h833zM911 727l-813 -4l21 90l786 64z" glyph-name="equal" horiz-adv-x="1057" unicode="="/>
<glyph d="M741 723l-643 -553l-16 39l362 536l-397 629l57 12z" glyph-name="greater" horiz-adv-x="858" unicode="&gt;"/>
<glyph d="M313 92q26 20 49.5 29.5t45.5 9.5q34 0 60 -29t26 -67q0 -43 -47.5 -79t-104.5 -36q-48 0 -86.5 41t-38.5 92q0 42 25.5 80.5t74.5 71.5l37 -39q-38 -29 -56.5 -57t-18.5 -56q0 -29 20 -48t51 -19q28 0 44 15.5t16 43.5q-1 11 -6 15.5t-17 5.5q-9 -1 -21 -6.5t-32 -18.5z M236 1731q176 -121 263 -237t87 -230q0 -159 -222 -421q-28 -33 -42 -50q-44 -52 -66.5 -109.5t-22.5 -120.5q0 -76 41 -146t127 -140q-3 -12 -13.5 -28.5t-29.5 -39.5q-134 65 -206 161t-72 210q0 77 30 155.5t119 212.5q94 138 123 209.5t29 138.5q0 90 -53.5 180.5 t-163.5 186.5z" glyph-name="question" horiz-adv-x="678" unicode="?"/>
<glyph d="M569 449l-34 208l-50 -243zM983 233q-85 -95 -199 -146.5t-241 -51.5q-212 0 -349 132.5t-137 338.5q0 205 137 350t330 145q134 0 218.5 -81.5t84.5 -210.5q0 -70 -42 -137t-128 -134l56 -178l-117 -31l-27 177l-88 -25l-26 -172l-105 16l176 693l13 4l110 -428 q66 49 98.5 104.5t32.5 118.5q0 104 -71 169.5t-185 65.5q-152 0 -264.5 -123.5t-112.5 -291.5q0 -169 105.5 -278t265.5 -109q111 0 205 40t160 115z" glyph-name="at" horiz-adv-x="1022" unicode="@"/>
<glyph d="M465 614l-107 607l-71 -590zM864 -84l-260 -29l-123 623l-209 6l-73 -649l-215 31l358 1759z" glyph-name="A" unicode="A"/>
<glyph d="M250 90q189 131 253 210.5t64 166.5q0 122 -78 208t-229 130zM242 987q83 66 121 125.5t38 122.5q0 77 -30.5 130t-98.5 91zM393 946q185 -76 281 -189.5t96 -256.5q0 -185 -179.5 -353.5t-477.5 -259.5l12 1769q12 2 24.5 2.5t34.5 0.5q186 0 296 -85.5t110 -230.5 t-156 -345q-27 -34 -41 -52z" glyph-name="B" horiz-adv-x="842" unicode="B"/>
<glyph d="M629 -72l-127 -133v-4q-220 218 -326 448.5t-106 489.5q0 238 78 472.5t247 500.5l117 -76q-120 -235 -175.5 -440t-55.5 -408q0 -241 83.5 -446t264.5 -404z" glyph-name="C" horiz-adv-x="637" unicode="C"/>
<glyph d="M274 174q152 189 223.5 353.5t71.5 324.5q0 164 -65 310.5t-199 285.5l-8 4zM176 1739q280 -157 435 -389.5t155 -491.5q0 -241 -160.5 -495t-468.5 -498q-4 128 -6 260t-2 274q0 247 11 568t36 772z" glyph-name="D" horiz-adv-x="823" unicode="D"/>
<glyph d="M545 1640l-4 -170l-232 -2l-14 -432h223l-12 -166l-207 -18l-80 -897l273 14v-153l-390 -4l41 1841z" glyph-name="E" horiz-adv-x="623" unicode="E"/>
<glyph d="M844 1569l-58 -242l-446 121l-18 -234l344 -49l-13 -106l-340 18l-75 -1286l-27 -2l-98 1845z" glyph-name="F" horiz-adv-x="805" unicode="F"/>
<glyph d="M764 1028l-62 -1157q-305 117 -473 343t-168 519q0 102 40 237t114 283q75 151 156.5 258.5t169.5 171.5v5l45 -93q-167 -178 -263 -388.5t-96 -391.5q0 -228 102.5 -409t291.5 -285l-9 733l-204 -90l-52 98z" glyph-name="G" horiz-adv-x="842" unicode="G"/>
<glyph d="M727 1622l-8 -217l-90 -1552l-148 16l43 655l-262 -4l14 -667h-8l-125 8l-10 1849h180l-2 -92q-19 -645 -26 -958l247 -5q11 171 23 370t35 597h137z" glyph-name="H" horiz-adv-x="811" unicode="H"/>
<glyph d="M250 1384q57 -131 87 -281t30 -308q0 -275 -29 -487.5t-86 -362.5q-90 162 -140.5 346.5t-50.5 349.5q0 200 52 403.5t137 339.5zM350 1589l-100 -139l-103 106l89 140z" glyph-name="I" horiz-adv-x="430" unicode="I"/>
<glyph d="M614 1612q66 -172 98.5 -372t32.5 -427q0 -277 -42 -543.5t-125 -515.5q-259 157 -395 422t-148 635q43 5 95.5 13t133.5 22q24 -261 86 -455t166 -334q50 155 75 341t25 401q0 196 -27 394t-81 396q33 10 98 21z" glyph-name="J" horiz-adv-x="858" unicode="J"/>
<glyph d="M1104 86l-158 -121l-692 682l22 -790l-163 10l12 1816h139l-18 -829l450 719l178 -103l-575 -755z" glyph-name="K" horiz-adv-x="1067" unicode="K"/>
<glyph d="M698 492l-16 -482l-577 33q1 318 25.5 835.5t29.5 663.5q19 1 38 1.5t44 0.5h-2q18 0 55 -2l24 -6l-10 -1163z" glyph-name="L" horiz-adv-x="754" unicode="L"/>
<glyph d="M1665 6q-54 -30 -113 -61.5t-133 -69.5l-393 1124l-330 -976q-48 157 -132 506.5t-122 496.5q-13 -94 -42 -289q-78 -523 -113 -805l-238 19q136 797 213.5 1218t91.5 439q68 -157 206 -506t220 -531q21 78 62 231q133 497 202 734z" glyph-name="M" horiz-adv-x="1634" unicode="M"/>
<glyph d="M1116 -168l-782 1134q-6 -95 -8 -160t-2 -114q0 -167 4 -351t12 -390h-196q-8 79 -11.5 174.5t-3.5 234.5v107q0 149 7.5 431.5t25.5 809.5l649 -1157l-59 1106l176 -17z" glyph-name="N" horiz-adv-x="1169" unicode="N"/>
<glyph d="M545 756q0 167 -43 323.5t-135 327.5q-10 -47 -30 -136q-83 -385 -83 -550q0 -196 30.5 -363t86.5 -280l8 18q166 383 166 641v19zM358 1708q165 -210 251.5 -457.5t86.5 -505.5q0 -165 -73.5 -409t-212.5 -537q-82 72 -147.5 178t-117.5 250q-44 123 -68 249t-24 233 q0 141 77 393t228 606z" glyph-name="O" horiz-adv-x="750" unicode="O"/>
<glyph d="M727 1214q0 142 -120.5 235t-342.5 120l88 -926q198 147 283 273t92 276v22zM317 424l84 -514l-290 -31l67 1860h8q170 0 325 -50.5t267 -142.5q85 -68 125.5 -153.5t40.5 -196.5q0 -242 -165 -446t-462 -326z" glyph-name="P" horiz-adv-x="987" unicode="P"/>
<glyph d="M670 385q12 68 18 143.5t6 159.5q0 238 -55 443.5t-150 324.5q-120 -103 -199 -302t-79 -402q0 -189 62.5 -381t175.5 -346q51 55 89 118.5t64 135.5l-86 186l6 8q33 -27 69.5 -48.5t78.5 -39.5zM981 74q-25 4 -87 28t-169 70q-28 -52 -83.5 -126.5t-160.5 -199.5 q-205 159 -314.5 395t-109.5 519v14q0 206 116 429.5t327 420.5q173 -189 272.5 -424.5t99.5 -449.5q0 -95 -28 -209t-86 -252z" glyph-name="Q" horiz-adv-x="952" unicode="Q"/>
<glyph d="M303 352q169 126 251.5 267.5t82.5 306.5q0 156 -67.5 283t-186.5 196zM375 260l438 -305l-106 -117l-400 355l6 -443l-211 12q26 760 48.5 1275.5t31.5 570.5q321 -46 502.5 -226t181.5 -450q0 -230 -111.5 -383.5t-379.5 -288.5z" glyph-name="R" horiz-adv-x="942" unicode="R"/>
<glyph d="M653 1618q-167 -131 -248 -257t-81 -253q0 -56 15.5 -119.5t47.5 -134.5q16 -37 49 -108q139 -302 139 -461q0 -181 -101.5 -308t-305.5 -200l-18 112q119 65 178 166.5t59 241.5q0 101 -17 173.5t-51 115.5q-145 192 -204.5 317t-59.5 232q0 151 130.5 284t394.5 250z " glyph-name="S" horiz-adv-x="647" unicode="S"/>
<glyph d="M954 1616q-6 -57 -18 -164.5t-16 -150.5q-78 7 -273 37q-7 1 -10 1q-29 -330 -57.5 -889.5t-53.5 -783.5l-12 2q-41 442 -70.5 853.5t-48.5 799.5l-415 -21l-25 295q117 14 259 20.5t304 6.5q111 0 219.5 -1.5t216.5 -4.5z" glyph-name="T" horiz-adv-x="971" unicode="T"/>
<glyph d="M803 1611q5 -99 7.5 -175.5t2.5 -139.5q0 -387 -80 -775.5t-237 -762.5q-201 313 -303.5 680.5t-102.5 771.5q0 115 13.5 253t13.5 163v4q19 3 38.5 4.5t37.5 1.5q36 0 70 -3.5t66 -10.5q-26 -173 -39.5 -318.5t-13.5 -267.5q0 -227 48.5 -456t144.5 -459q80 230 120 495 t40 568q0 109 -8 216t-23 211q26 2 52.5 2.5t72.5 0.5q2 0 13 -1q35 -1 67 -2z" glyph-name="U" horiz-adv-x="901" unicode="U"/>
<glyph d="M854 1602l-438 -1856q-118 395 -213.5 845.5t-179.5 1010.5h253l140 -1293l219 1293h219z" glyph-name="V" horiz-adv-x="854" unicode="V"/>
<glyph d="M1192 1532l-219 -1765l-424 1202l-92 -1135l-461 1657l219 55l186 -1190l136 1024l340 -960l129 1245z" glyph-name="W" horiz-adv-x="1260" unicode="W"/>
<glyph d="M1272 223l-289 -188q-141 204 -249 358.5t-150 214.5q-253 -374 -394.5 -559.5t-244.5 -281.5q0 17 139.5 333t343.5 754l-465 702l244 52q74 -138 150 -287.5t178 -359.5q55 84 190.5 304.5t210.5 311.5q-99 -329 -149.5 -493t-96.5 -304z" glyph-name="X" horiz-adv-x="1176" unicode="X"/>
<glyph d="M1403 1491l-359 -672q-16 -32 -79 -138.5t-91 -174.5q-30 -74 -44 -194q-5 -42 -9 -61l-92 -466h-10l-84 1001l-711 586l375 156l416 -654l481 734z" glyph-name="Y" horiz-adv-x="1403" unicode="Y"/>
<glyph d="M899 1556l-680 -1396l385 -27l-59 -264l-606 119l630 1435l-460 19l26 170z" glyph-name="Z" horiz-adv-x="827" unicode="Z"/>
<glyph d="M702 1468l-346 -61l-84 -1225l273 -98l76 -107l-478 -38l39 1634l469 -37z" glyph-name="bracketleft" horiz-adv-x="776" unicode="["/>
<glyph d="M1159 -174l-31 -16l-1151 1867l238 101z" glyph-name="backslash" horiz-adv-x="1122" unicode="\"/>
<glyph d="M639 1616l-14 -1688l-469 23l37 84l249 59l90 1348h-415l92 98z" glyph-name="bracketright" horiz-adv-x="776" unicode="]"/>
<glyph d="M750 1157l-82 -78l-242 146l-307 -178l-43 63l366 289z" glyph-name="asciicircum" horiz-adv-x="827" unicode="^"/>
<glyph d="M1044 -434l-1026 -39l-22 90l1003 96z" glyph-name="underscore" horiz-adv-x="1024" unicode="_"/>
<glyph d="M575 1925l-20 -72l-297 97l59 112z" glyph-name="grave" horiz-adv-x="946" unicode="`"/>
<glyph d="M549 809q-31 162 -71.5 272t-69.5 121l-2 -3l-3 -7q-80 -193 -98 -322q37 -24 98 -39.5t146 -21.5zM385 1640q180 -218 276.5 -542.5t96.5 -714.5q0 -118 -12 -266.5t-37 -343.5q-31 288 -75 517.5t-102 411.5q-64 17 -125 27t-116 12l-27 -47q-16 -24 -67 -211 t-133 -523q-4 57 -5.5 121t-1.5 187q0 326 83.5 674.5t244.5 697.5z" glyph-name="a" unicode="a"/>
<glyph d="M430 45q52 57 81.5 142.5t29.5 181.5q0 145 -83 229.5t-245 103.5v-6q0 -135 56.5 -306t160.5 -345zM203 818q96 115 145 237t49 243q0 48 -9 91.5t-28 85.5q-78 -127 -118.5 -279t-40.5 -322q0 -23 0.5 -35.5t1.5 -20.5zM403 836q138 -65 214.5 -177.5t76.5 -248.5 q0 -148 -81 -305t-226 -287q-140 170 -220.5 431t-80.5 548q0 236 61.5 461.5t184.5 439.5q112 -79 168.5 -179.5t56.5 -222.5q0 -91 -33.5 -194t-120.5 -266z" glyph-name="b" horiz-adv-x="752" unicode="b"/>
<glyph d="M924 -49q-386 71 -612 295.5t-226 531.5q0 119 42.5 247.5t123.5 252.5q78 120 173.5 206t217.5 146l27 -84v4q-181 -139 -289.5 -334t-108.5 -376v-15q0 -277 157 -468.5t468 -293.5z" glyph-name="c" horiz-adv-x="944" unicode="c"/>
<glyph d="M242 264q112 132 168.5 295.5t56.5 353.5q0 151 -40.5 260t-127.5 193q-3 -59 -10 -175q-39 -664 -47 -927zM98 -147q6 456 27.5 910.5t58.5 907.5q230 -85 360 -297t130 -504v-26q0 -251 -147 -504.5t-429 -486.5z" glyph-name="d" horiz-adv-x="733" unicode="d"/>
<glyph d="M874 344q-105 -90 -241.5 -181t-325.5 -198q-106 136 -168.5 358t-62.5 468q0 229 62.5 439t191.5 415l397 -193q-16 -1 -34 -1.5t-52 -0.5q-50 0 -111.5 2.5t-140.5 7.5q-43 -142 -61.5 -234.5t-18.5 -166.5v-10q58 5 99 7.5t73 2.5q13 0 29.5 -1t48.5 -3 q-53 -22 -114.5 -55t-127.5 -74v-31q0 -218 38 -353.5t122 -277.5q97 25 196 45t201 35z" glyph-name="e" horiz-adv-x="854" unicode="e"/>
<glyph d="M950 1171l-602 76h8q-20 -66 -30.5 -129.5t-10.5 -124.5q0 -24 2 -49t5 -47l223 -8l-209 -113h4q9 -229 69.5 -467.5t180.5 -509.5q-238 218 -374 531.5t-136 644.5q0 149 31 299t94 307z" glyph-name="f" horiz-adv-x="893" unicode="f"/>
<glyph d="M797 870l-170 -968q-295 116 -434.5 326.5t-139.5 537.5q0 314 157 573t419 377l8 -112q-192 -161 -292.5 -370.5t-100.5 -451.5q0 -227 70.5 -392.5t220.5 -287.5l43 605l-146 -7l-22 154z" glyph-name="g" horiz-adv-x="852" unicode="g"/>
<glyph d="M768 1667l-78 -1765l-143 6l12 913l-258 -20q8 -268 22.5 -494t34.5 -413q-17 -2 -33 -5t-32 -8q-22 100 -59.5 338.5t-81.5 571.5l-105 -9l-29 150l115 12q-21 182 -38 368t-29 378l208 -2q14 -172 22 -351t12 -366l245 18l12 686z" glyph-name="h" horiz-adv-x="852" unicode="h"/>
<glyph d="M309 -160l-14 15q-101 218 -155 438.5t-54 415.5q0 170 43.5 336.5t124.5 308.5q54 -190 80 -371t26 -371v-125q0 -157 -12.5 -319.5t-38.5 -327.5zM213 1563q18 38 42.5 57.5t53.5 19.5q61 0 89 -24t28 -76q0 -66 -30.5 -93.5t-104.5 -27.5q-80 0 -133.5 40t-53.5 97 q0 48 34 85.5t104 66.5l16 -31q-44 -22 -62 -40t-22 -40l-6 -34q0 -56 23.5 -83.5t70.5 -27.5q42 0 63 14.5t21 42.5q0 4 -1 9.5t-1 7.5q0 3 -0.5 6.5t-1.5 7.5q-11 10 -22.5 15t-22.5 6q-12 0 -23 -7.5t-18 -19.5z" glyph-name="i" horiz-adv-x="479" unicode="i"/>
<glyph d="M754 1618l-11 -1839q-347 167 -524.5 452t-189.5 695l188 -11q55 -378 147 -573.5t250 -284.5l-20 1561h160z" glyph-name="j" horiz-adv-x="868" unicode="j"/>
<glyph d="M1206 371l-129 -170l-786 420l-23 -697l-219 35l178 1729l156 -21l-61 -715l526 602l143 -151l-575 -631z" glyph-name="k" horiz-adv-x="1202" unicode="k"/>
<glyph d="M745 98q-9 -53 -15 -106.5t-7 -103.5q-42 2 -270 35q-106 15 -168 24q-31 279 -84.5 693t-139.5 1033l332 31l-31 -1636z" glyph-name="l" horiz-adv-x="764" unicode="l"/>
<glyph d="M2294 8l-160 -133l-578 916l-436 -783l-418 942l-518 -1147l-239 142l782 1345l412 -856l407 596z" glyph-name="m" horiz-adv-x="2281" unicode="m"/>
<glyph d="M1470 1157l-491 -1358l-676 1200l80 -976l-248 12v1421l787 -1116l432 887z" glyph-name="n" horiz-adv-x="1462" unicode="n"/>
<glyph d="M385 92q61 145 93 331t32 400q0 233 -28.5 397.5t-88.5 274.5q-54 -157 -85.5 -356.5t-31.5 -393.5q0 -183 27 -345t82 -308zM406 1702q145 -164 226 -397t81 -488q0 -220 -94.5 -500.5t-258.5 -533.5q-150 224 -228.5 470.5t-78.5 496.5q0 235 90 478t263 474z" glyph-name="o" horiz-adv-x="766" unicode="o"/>
<glyph d="M344 645q116 59 189 182t73 256q0 141 -66 266t-159 162zM125 1558q30 10 79 15.5t105 5.5q231 0 385 -139.5t154 -345.5q0 -172 -122.5 -310t-356.5 -231l-58 -678l-110 2q-39 439 -58.5 831.5t-19.5 743.5q0 40 0.5 63t1.5 43z" glyph-name="p" horiz-adv-x="911" unicode="p"/>
<glyph d="M338 43q84 194 127 405.5t43 428.5q0 157 -26 310t-79 306l-4 4q-17 -5 -47.5 -100.5t-66.5 -263.5q-21 -90 -31 -169t-10 -143v-30q0 -292 22 -460.5t72 -287.5zM807 106l-248 97q-91 -177 -143.5 -266.5t-85.5 -126.5q-129 163 -201 392t-72 478q0 289 94.5 544 t268.5 439q136 -229 204 -451t68 -436q0 -124 -24.5 -242.5t-71.5 -224.5h4q23 0 75.5 -51t131.5 -152z" glyph-name="q" horiz-adv-x="770" unicode="q"/>
<glyph d="M217 604q137 93 222 247t85 304q0 120 -51 188t-182 121zM147 1657q275 -40 422.5 -170t147.5 -334q0 -193 -101 -353.5t-331 -328.5q123 -188 223.5 -325.5t185.5 -235.5l-221 -115l-256 570l21 -562l-140 4q25 633 37 1096.5t12 753.5z" glyph-name="r" horiz-adv-x="784" unicode="r"/>
<glyph d="M750 604q-53 -220 -215 -416.5t-431 -367.5l-24 82q193 163 302 316t136 298q-186 186 -302.5 369t-178.5 385q112 139 249 247t300 185l57 -68q-132 -72 -236 -161t-182 -197q105 -203 237 -372t288 -300z" glyph-name="s" horiz-adv-x="827" unicode="s"/>
<glyph d="M684 1419l-215 -8q5 -54 9.5 -99t6.5 -66l142 -1088q1 -9 10 -73t16 -119q-109 11 -206 16.5t-185 5.5l72 1407l-371 -47l-22 110q175 31 360 57.5t383 49.5v-146z" glyph-name="t" horiz-adv-x="762" unicode="t"/>
<glyph d="M909 1612l-30 -399q-75 -971 -109 -1391q-353 149 -528.5 398t-175.5 601q0 194 52.5 403t160.5 443l202 -78q-48 -138 -73 -317.5t-25 -392.5q0 -368 81 -616.5t230 -337.5q7 358 13 784t10 899z" glyph-name="u" horiz-adv-x="981" unicode="u"/>
<glyph d="M1651 1327l-762 -1388l-916 1216l222 229l636 -1103l568 1165z" glyph-name="v" horiz-adv-x="1663" unicode="v"/>
<glyph d="M1851 1268l-540 -1348l-451 787l-352 -768l-512 1165l166 125l350 -975l373 881l430 -777l420 1014z" glyph-name="w" horiz-adv-x="1851" unicode="w"/>
<glyph d="M881 -53l-193 -80l-317 831l-117 -868l-195 18l211 1035l-211 751l205 21l113 -580l139 633l154 -41l-219 -790z" glyph-name="x" horiz-adv-x="846" unicode="x"/>
<glyph d="M786 1448l-446 -971l111 -715l-129 -30q-13 80 -52.5 455.5t-103.5 627.5t-90 427t-27 339l211 -22l35 -719l303 661z" glyph-name="y" horiz-adv-x="750" unicode="y"/>
<glyph d="M766 1640l-512 -1384l397 -47l-147 -408l-549 187l580 1519l-299 -88l-27 172z" glyph-name="z" horiz-adv-x="766" unicode="z"/>
<glyph d="M618 76l-88 -92q-181 196 -270 388.5t-92 390.5l-123 62l119 33q36 192 121.5 381t226.5 385l74 -78q-133 -200 -198.5 -383.5t-65.5 -353.5q0 -216 78.5 -410t217.5 -323z" glyph-name="braceleft" horiz-adv-x="655" unicode="{"/>
<glyph d="M438 1882l-88 -2124h-35l-88 2079z" glyph-name="bar" horiz-adv-x="666" unicode="|"/>
<glyph d="M629 825l-121 -61q-3 -189 -91.5 -381.5t-269.5 -398.5l-88 92q141 131 219 327t78 418q0 159 -67 340.5t-201 384.5l74 78q136 -164 222 -352t126 -414z" glyph-name="braceright" horiz-adv-x="655" unicode="}"/>
<glyph d="M1530 627q-101 -72 -197.5 -108t-189.5 -36q-43 0 -90.5 9t-100.5 26q-30 10 -87 31q-202 72 -302 72q-83 0 -173.5 -37.5t-211.5 -122.5v133q105 73 202 109t185 36q56 0 116.5 -12.5t174.5 -52.5q14 -5 44 -16q158 -58 245 -58q84 0 174.5 37t210.5 121v-131z" glyph-name="asciitilde" horiz-adv-x="1706" unicode="~"/>
<glyph glyph-name="nonbreakingspace" horiz-adv-x="950" unicode=" "/>
<glyph d="M311 -43h-245l118 1309l21 -2zM250 1464q-35 -28 -60.5 -40.5t-48.5 -12.5q-33 0 -51 27.5t-18 77.5q0 47 39 77.5t100 30.5q51 0 89 -40.5t38 -94.5q0 -58 -32 -97.5t-99 -66.5l-23 45q52 19 75.5 48.5t23.5 74.5q0 29 -21.5 49.5t-52.5 20.5q-32 0 -52 -17t-20 -43 q0 -15 10.5 -24t28.5 -9q15 0 45 31l6 6z" glyph-name="exclamdown" horiz-adv-x="406" unicode="¡"/>
<glyph d="M401 526l-20 576q-89 -68 -130.5 -136.5t-41.5 -146.5q0 -98 48 -170.5t144 -122.5zM754 1239q-80 -8 -152 -29t-137 -55v-653q59 -20 116 -31t113 -15l-4 -99q-70 5 -124 12t-101 16v-338l-47 19l-12 331q-172 42 -255 131.5t-83 231.5q0 160 76.5 279.5t230.5 199.5 l-6 193l96 65v-219q69 25 138 43t136 29z" glyph-name="cent" horiz-adv-x="815" unicode="¢"/>
<glyph d="M684 1530l-6 -307q-161 -13 -237 -94t-76 -238q0 -18 1.5 -36t4.5 -34l176 6l-12 -88l-138 -6q42 -95 64 -171t22 -124q0 -60 -17.5 -128.5t-51.5 -143.5l237 39l-4 -205h-471q78 71 124 158t46 159q0 71 -44.5 175t-135.5 245l-100 -4l-21 55l96 11q-13 41 -19.5 85.5 t-6.5 92.5q0 212 161 369.5t408 183.5z" glyph-name="sterling" horiz-adv-x="741" unicode="£"/>
<glyph d="M307 633q41 45 59.5 94.5t18.5 112.5q0 107 -20.5 187t-53.5 106q-37 -49 -57.5 -114.5t-20.5 -137.5q0 -70 18.5 -130.5t55.5 -117.5zM569 1120l-92 -111q10 -31 14.5 -57.5t4.5 -50.5q0 -46 -12 -92.5t-35 -91.5l73 -96l-26 -23l-74 78q-28 -37 -57 -65t-56 -46 q-31 27 -57.5 57.5t-48.5 65.5l-78 -90l-43 78l82 84q-15 36 -22 65.5t-7 57.5q0 12 3 32t9 48l-112 118l88 60l63 -82q33 47 63 77t60 46q46 -9 82.5 -40.5t65.5 -86.5l86 88z" glyph-name="currency" horiz-adv-x="602" unicode="¤"/>
<glyph d="M1389 1612l-390 -797l332 43l6 -113l-376 -28q-6 -21 -9.5 -44.5t-5.5 -51.5l404 -37l-7 -76l-411 27q-28 -155 -52.5 -283.5t-48.5 -241.5l-4 6l-71 529l-209 12l10 96l188 -22l-10 67l-196 -16l-17 70l205 26l-25 178l-686 506l330 144l457 -586l403 692z" glyph-name="yen" horiz-adv-x="1397" unicode="¥"/>
<glyph d="M575 408v-758h-126v758h126zM575 1432v-758h-126v758h126z" glyph-name="brokenbar" horiz-adv-x="1024" unicode="¦"/>
<glyph d="M342 653q39 41 57.5 85t18.5 96q0 56 -29.5 120t-118.5 185q-22 -34 -32.5 -74.5t-10.5 -103.5q0 -86 28.5 -161.5t86.5 -146.5zM549 1778q-108 -92 -161.5 -183t-53.5 -184q0 -102 94 -275q3 -5 4 -7q5 -10 17 -31q81 -151 81 -240q0 -73 -34 -141t-101 -129 q49 -59 74 -114t25 -107q0 -84 -79 -189.5t-243 -238.5l-63 57q116 105 166.5 185t50.5 159q0 49 -20 101.5t-83 154.5q-77 121 -107 205t-30 168q0 74 31.5 139t95.5 121q-28 51 -41.5 101t-13.5 102q0 109 85 204.5t261 184.5z" glyph-name="section" horiz-adv-x="625" unicode="§"/>
<glyph d="M424 1872l-102 -146l-144 117l117 131zM768 1851l-104 -125l-146 119l125 119z" glyph-name="dieresis" horiz-adv-x="946" unicode="¨"/>
<glyph d="M293 1464q92 0 158.5 -66.5t66.5 -158.5q0 -94 -67 -159.5t-162 -65.5q-89 0 -155 67.5t-66 161.5q0 88 66.5 154.5t158.5 66.5zM293 1430q-79 0 -135 -56.5t-56 -134.5q0 -77 56.5 -133.5t134.5 -56.5q79 0 135.5 55.5t56.5 134.5q0 80 -56 135.5t-136 55.5zM397 1288 h-54q-3 22 -15.5 33.5t-32.5 11.5q-28 0 -42.5 -23.5t-14.5 -68.5q0 -44 14.5 -67t42.5 -23q21 0 34.5 13.5t14.5 35.5h55q0 -44 -29.5 -71t-78.5 -27q-52 0 -82.5 37.5t-30.5 101.5q0 60 32.5 96.5t86.5 36.5q45 0 72 -23.5t28 -62.5z" glyph-name="copyright" horiz-adv-x="555" unicode="©"/>
<glyph d="M463 1030q-13 86 -38.5 158.5t-59.5 117.5q-4 -8 -10 -24q-52 -128 -64 -209q23 -15 66 -26t106 -17zM653 260l-14 -74l-602 -18l-4 113zM346 1640q136 -156 207.5 -377.5t71.5 -488.5q0 -91 -9 -200.5t-26 -239.5q-19 148 -52.5 300t-82.5 306q-45 12 -89 19t-88 9 l-20 -32q-15 -26 -57.5 -179t-100.5 -394q-5 89 -6.5 137.5t-1.5 91.5q0 262 62.5 524.5t185.5 519.5z" glyph-name="ordfeminine" horiz-adv-x="727" unicode="ª"/>
<glyph d="M330 877l-109 -140l98 -211l-53 -34l-180 260l178 188zM524 852l-110 -133l82 -205l-41 -37l-164 262l166 168z" glyph-name="guillemotleft" horiz-adv-x="598" unicode="«"/>
<glyph d="M1452 858v-502h-115v385h-1083v117h1198z" glyph-name="logicalnot" horiz-adv-x="1706" unicode="¬"/>
<glyph d="M590 762l-516 -10l6 77l493 74z" glyph-name="sfthyphen" horiz-adv-x="670" unicode="­"/>
<glyph d="M293 1464q92 0 158.5 -66.5t66.5 -158.5q0 -94 -67 -159.5t-162 -65.5q-89 0 -155 67.5t-66 161.5q0 88 66.5 154.5t158.5 66.5zM293 1430q-79 0 -135 -56.5t-56 -134.5q0 -77 56.5 -133.5t134.5 -56.5q79 0 135.5 55.5t56.5 134.5q0 80 -56 135.5t-136 55.5zM203 1360 h88q52 0 77 -17t25 -53q0 -24 -13 -41t-37 -24l52 -107h-57l-47 99h-35v-99h-53v242zM256 1323v-70h35q26 0 37.5 8t11.5 25q0 19 -12 28t-39 9h-33z" glyph-name="registered" horiz-adv-x="555" unicode="®"/>
<glyph d="M1024 1565v-119h-1024v119h1024z" glyph-name="overscore" horiz-adv-x="1024" unicode="¯"/>
<glyph d="M338 1384q-42 -30 -77.5 -44.5t-67.5 -14.5q-53 0 -93.5 45.5t-40.5 106.5q0 65 73.5 120.5t160.5 55.5q74 0 134 -64t60 -143q0 -64 -39 -123.5t-116 -112.5l-58 60q59 44 90 89t31 87q0 45 -33 75.5t-81 30.5q-45 0 -70 -24.5t-25 -69.5q0 -17 8.5 -25t26.5 -8 q15 0 38 10t52 29z" glyph-name="degree" horiz-adv-x="543" unicode="°"/>
<glyph d="M1452 158v-117h-1198v117h1198zM913 1180v-344h539v-117h-539v-344h-118v344h-541v117h541v344h118z" glyph-name="plusminus" horiz-adv-x="1706" unicode="±"/>
<glyph d="M98 1559q212 -19 313 -101t101 -235q0 -108 -40.5 -202.5t-123.5 -180.5q-61 -64 -150.5 -131.5t-103.5 -83.5l256 -19l-16 -127q-80 11 -168.5 25.5t-198.5 34.5q198 184 299 337.5t101 270.5q0 86 -59 141t-150 55q-24 0 -40.5 -2.5t-27.5 -6.5z" glyph-name="twosuperior" horiz-adv-x="569" unicode="²"/>
<glyph d="M63 1522q32 8 62 12t59 4q123 0 197 -64t74 -171q0 -115 -146 -275l-3 -3q42 -54 63.5 -115t21.5 -128q0 -145 -105.5 -238t-303.5 -120q5 100 13 162.5t15 64.5h4q116 0 193.5 56t77.5 139q0 36 -17 77.5t-51 88.5q71 60 107 115t36 102q0 59 -52 99t-132 40 q-18 0 -38 -4t-44 -12z" glyph-name="threesuperior" horiz-adv-x="492" unicode="³"/>
<glyph d="M688 1855l-297 -96l-20 72l258 137z" glyph-name="acute" horiz-adv-x="946" unicode="´"/>
<glyph d="M362 1069l-126 -595q-8 -33 -11.5 -67t-3.5 -71q0 -109 57 -168t160 -59q125 0 208 101t128 308l121 551h156l-162 -754q-12 -52 -17.5 -84t-5.5 -51q0 -32 18.5 -48.5t53.5 -16.5q9 0 17.5 0.5t17.5 1.5l-27 -125q-21 -5 -44 -7.5t-48 -2.5q-70 0 -104.5 35t-40.5 112 q-41 -70 -117 -108.5t-172 -38.5q-87 0 -152.5 34t-109.5 103l-113 -545h-156l316 1495h157z" glyph-name="mu" horiz-adv-x="1128" unicode="µ"/>
<glyph d="M616 1595q-165 -35 -254.5 -125.5t-89.5 -222.5t61 -235t187 -183zM719 1605q-9 -1 -15.5 -2.5t-11.5 -3.5l-100 -821q28 -14 48.5 -26.5t37.5 -24.5zM965 -8h-234l-33 500l-114 51l-45 -537l-121 27l71 557q-215 115 -323.5 274.5t-108.5 360.5q0 254 184 403t517 164z " glyph-name="paragraph" horiz-adv-x="1049" unicode="¶"/>
<glyph d="M420 831l-168 -192l-184 152l159 184z" glyph-name="glyph195" horiz-adv-x="489" unicode="·"/>
<glyph d="M420 831l-168 -192l-184 152l159 184z" glyph-name="glyph195" horiz-adv-x="489" unicode="∙"/>
<glyph d="M479 -80q67 -44 101 -93.5t34 -100.5t-45.5 -100.5t-93.5 -49.5q-49 0 -96 49.5t-47 100.5q0 45 28.5 74.5t71.5 29.5q22 0 44.5 -17t45.5 -51l-39 -44q-12 19 -22 28.5t-19 9.5q-10 0 -19 -9t-9 -19q0 -28 17 -47t42 -19q27 0 47.5 20.5t20.5 49.5q0 40 -26 79.5 t-75 73.5z" glyph-name="cedilla" horiz-adv-x="946" unicode="¸"/>
<glyph d="M205 1534q66 -83 98.5 -198.5t32.5 -272.5q0 -143 -27 -307t-82 -350q-41 98 -64.5 243t-23.5 307q0 92 21 197t61 215l-229 -104l-15 2z" glyph-name="onesuperior" horiz-adv-x="424" unicode="¹"/>
<glyph d="M313 586q44 106 66 227.5t22 255.5q0 159 -20.5 272t-63.5 193q-39 -131 -60 -263t-21 -243q0 -127 19 -235.5t58 -206.5zM514 260l-14 -74l-414 -18l-4 113zM328 1704q113 -121 175 -287t62 -348q0 -154 -71 -347t-201 -388q-117 163 -176.5 336.5t-59.5 349.5 q0 166 68 337.5t203 346.5z" glyph-name="ordmasculine" horiz-adv-x="623" unicode="º"/>
<glyph d="M307 739l-164 -262l-41 37l82 205l-110 133l65 55zM512 752l-180 -260l-56 34l99 211l-107 140l66 63z" glyph-name="guillemotright" horiz-adv-x="598" unicode="»"/>
<glyph d="M1294 780l-192 -307l127 -35zM1372 918l-65 -1035l-105 15l23 458l-267 45l363 523zM1198 1503l-1075 -1757l-27 16l922 1870zM197 1528q62 -79 92 -187.5t30 -255.5q0 -132 -25.5 -285t-76.5 -327q-39 91 -61.5 226.5t-22.5 287.5q0 87 20 185.5t58 199.5l-219 -98 l-12 2z" glyph-name="onequarter" horiz-adv-x="1432" unicode="¼"/>
<glyph d="M1036 930q203 -17 300.5 -93.5t97.5 -220.5q0 -100 -39.5 -188t-118.5 -168q-60 -61 -144.5 -124t-97.5 -77l244 -16l-14 -119q-86 11 -173 24.5t-178 31.5q190 172 285.5 315t95.5 252q0 80 -56.5 132t-143.5 52q-22 0 -37 -2.5t-27 -7.5zM1198 1503l-1075 -1757l-27 16 l922 1870zM197 1528q62 -79 92 -187.5t30 -255.5q0 -132 -25.5 -285t-76.5 -327q-39 91 -61.5 226.5t-22.5 287.5q0 87 20 185.5t58 199.5l-219 -98l-12 2z" glyph-name="onehalf" horiz-adv-x="1487" unicode="½"/>
<glyph d="M1360 780l-193 -307l127 -35zM1438 918l-66 -1035l-104 15l22 458l-266 45l362 523zM1264 1503l-1076 -1757l-26 16l921 1870zM61 1513q31 9 59 13t56 4q118 0 188 -59.5t70 -159.5q0 -110 -141 -258l-2 -2q41 -50 61.5 -106.5t20.5 -119.5q0 -135 -101 -221t-290 -112 q5 92 13 150t15 60h4q109 0 182.5 52.5t73.5 128.5q0 37 -15.5 76t-47.5 81q68 55 102.5 105.5t34.5 95.5q0 55 -49.5 92t-124.5 37q-21 0 -41 -3.5t-41 -10.5z" glyph-name="threequarters" horiz-adv-x="1497" unicode="¾"/>
<glyph d="M274 1384q139 -68 210 -162.5t71 -209.5q0 -75 -28.5 -150t-123.5 -215q-94 -143 -121.5 -212.5t-27.5 -135.5q0 -92 53.5 -183t161.5 -184l-72 -67q-175 117 -262.5 233.5t-87.5 233.5q0 159 227 425q25 29 37 44q43 50 65.5 109.5t22.5 119.5q0 81 -41 152t-124 134 q9 22 19 38t21 30zM319 1501q-23 -18 -46 -27.5t-46 -9.5q-35 0 -60.5 29t-25.5 68q0 41 47.5 76.5t102.5 35.5q47 0 86 -40.5t39 -90.5q0 -43 -25 -80.5t-76 -70.5l-34 34q38 31 57.5 60t19.5 55q0 28 -21.5 49t-51.5 21t-46 -16.5t-16 -47.5q0 -10 5 -14t18 -4 q10 0 24.5 6.5t30.5 17.5z" glyph-name="questiondown" horiz-adv-x="678" unicode="¿"/>
<glyph d="M465 614l-107 607l-71 -590zM864 -84l-260 -29l-123 623l-209 6l-73 -649l-215 31l358 1759zM456 1880l-20 -72l-297 97l59 112z" glyph-name="Agrave" unicode="À"/>
<glyph d="M465 614l-107 607l-71 -590zM864 -84l-260 -29l-123 623l-209 6l-73 -649l-215 31l358 1759zM569 1810l-297 -96l-20 72l258 137z" glyph-name="Aacute" unicode="Á"/>
<glyph d="M465 614l-107 607l-71 -590zM864 -84l-260 -29l-123 623l-209 6l-73 -649l-215 31l358 1759zM594 1774l-35 -54l-215 123l-166 -100l-64 61l222 174z" glyph-name="Acircumflex" unicode="Â"/>
<glyph d="M465 614l-107 607l-71 -590zM864 -84l-260 -29l-123 623l-209 6l-73 -649l-215 31l358 1759zM522 1751q-28 -23 -54 -35t-48 -12q-28 0 -68 28.5t-68 28.5q-23 0 -45.5 -16.5t-42.5 -48.5l-30 104q29 25 54 36t50 11q33 0 74 -28.5t59 -28.5q24 0 46 17.5t40 50.5z" glyph-name="Atilde" unicode="Ã"/>
<glyph d="M465 614l-107 607l-71 -590zM864 -84l-260 -29l-123 623l-209 6l-73 -649l-215 31l358 1759zM305 1827l-102 -146l-144 117l117 131zM649 1806l-104 -125l-146 119l125 119z" glyph-name="Adieresis" unicode="Ä"/>
<glyph d="M465 614l-107 607l-71 -590zM864 -84l-260 -29l-123 623l-209 6l-73 -649l-215 31l358 1759zM319 1843q23 47 50.5 71.5t56.5 24.5q33 0 61.5 -33.5t28.5 -72.5q0 -46 -44 -86.5t-93 -40.5q-57 0 -98 41t-41 96q0 32 17.5 66.5t57.5 79.5l43 -37q-30 -38 -41.5 -60 t-11.5 -39q0 -38 16 -58.5t46 -20.5q28 0 48.5 16.5t20.5 40.5q0 15 -7 24t-19 9q-13 0 -22.5 -10t-27.5 -46z" glyph-name="Aring" unicode="Å"/>
<glyph d="M604 934l-24 321l-131 -335zM1042 0h-358l-66 823l-210 4l-312 -827l-200 4l659 1428l360 14v-129h-194l14 -367l176 25l-6 -148l-153 -4l32 -684l232 41z" glyph-name="AE" horiz-adv-x="1044" unicode="Æ"/>
<glyph d="M356 -207q20 28 41.5 44t40.5 16q42 0 68 -28t26 -71q0 -49 -45 -96t-92 -47q-45 0 -90 47.5t-45 95.5q0 49 33 97t96 92l31 -29q-47 -35 -71.5 -75.5t-24.5 -84.5q0 -27 22.5 -47t50.5 -20q27 0 45.5 20.5t18.5 48.5q0 12 -11 23.5t-22 11.5q-9 0 -19.5 -8.5 t-23.5 -26.5zM541 14l-60 -39l-51 -36q-189 184 -275.5 371t-86.5 409q0 233 83 440t255 404l96 -70q-129 -196 -187.5 -376.5t-58.5 -377.5q0 -215 68.5 -389t216.5 -336z" glyph-name="Ccedilla" horiz-adv-x="559" unicode="Ç"/>
<glyph d="M545 1640l-4 -170l-232 -2l-14 -432h223l-12 -166l-207 -18l-80 -897l273 14v-153l-390 -4l41 1841zM440 1880l-20 -72l-297 97l59 112z" glyph-name="Egrave" horiz-adv-x="623" unicode="È"/>
<glyph d="M545 1640l-4 -170l-232 -2l-14 -432h223l-12 -166l-207 -18l-80 -897l273 14v-153l-390 -4l41 1841zM553 1810l-297 -96l-20 72l258 137z" glyph-name="Eacute" horiz-adv-x="623" unicode="É"/>
<glyph d="M545 1640l-4 -170l-232 -2l-14 -432h223l-12 -166l-207 -18l-80 -897l273 14v-153l-390 -4l41 1841zM578 1774l-35 -54l-215 123l-166 -100l-64 61l222 174z" glyph-name="Ecircumflex" horiz-adv-x="623" unicode="Ê"/>
<glyph d="M545 1640l-4 -170l-232 -2l-14 -432h223l-12 -166l-207 -18l-80 -897l273 14v-153l-390 -4l41 1841zM289 1827l-102 -146l-144 117l117 131zM633 1806l-104 -125l-146 119l125 119z" glyph-name="Edieresis" horiz-adv-x="623" unicode="Ë"/>
<glyph d="M250 1384q57 -131 87 -281t30 -308q0 -275 -29 -487.5t-86 -362.5q-90 162 -140.5 346.5t-50.5 349.5q0 200 52 403.5t137 339.5zM350 1589l-100 -139l-103 106l89 140zM356 1880l-20 -72l-297 97l59 112z" glyph-name="Igrave" horiz-adv-x="430" unicode="Ì"/>
<glyph d="M250 1384q57 -131 87 -281t30 -308q0 -275 -29 -487.5t-86 -362.5q-90 162 -140.5 346.5t-50.5 349.5q0 200 52 403.5t137 339.5zM350 1589l-100 -139l-103 106l89 140zM469 1810l-297 -96l-20 72l258 137z" glyph-name="Iacute" horiz-adv-x="430" unicode="Í"/>
<glyph d="M250 1384q57 -131 87 -281t30 -308q0 -275 -29 -487.5t-86 -362.5q-90 162 -140.5 346.5t-50.5 349.5q0 200 52 403.5t137 339.5zM350 1589l-100 -139l-103 106l89 140zM494 1774l-35 -54l-215 123l-166 -100l-64 61l222 174z" glyph-name="Icircumflex" horiz-adv-x="430" unicode="Î"/>
<glyph d="M250 1384q57 -131 87 -281t30 -308q0 -275 -29 -487.5t-86 -362.5q-90 162 -140.5 346.5t-50.5 349.5q0 200 52 403.5t137 339.5zM350 1589l-100 -139l-103 106l89 140zM205 1827l-102 -146l-144 117l117 131zM549 1806l-104 -125l-146 119l125 119z" glyph-name="Idieresis" horiz-adv-x="430" unicode="Ï"/>
<glyph d="M262 174q152 189 223.5 353.5t71.5 324.5q0 164 -65 310.5t-199 285.5l-8 6q0 -178 -2.5 -319.5t-7.5 -268.5l151 -16l6 -70l-158 4zM164 1739q280 -157 435 -389.5t155 -491.5q0 -240 -160 -493t-467 -500q-5 153 -7.5 284t-2.5 250q0 122 1.5 219t4.5 170l-121 5 l14 102l109 -12q12 317 38 838z" glyph-name="Eth" horiz-adv-x="827" unicode="Ð"/>
<glyph d="M1116 -168l-782 1134q-6 -95 -8 -160t-2 -114q0 -167 4 -351t12 -390h-196q-8 79 -11.5 174.5t-3.5 234.5v107q0 149 7.5 431.5t25.5 809.5l649 -1157l-59 1106l176 -17zM700 1751q-28 -23 -54 -35t-48 -12q-28 0 -68 28.5t-68 28.5q-23 0 -45.5 -16.5t-42.5 -48.5 l-30 104q29 25 54 36t50 11q33 0 74 -28.5t59 -28.5q24 0 46 17.5t40 50.5z" glyph-name="Ntilde" horiz-adv-x="1169" unicode="Ñ"/>
<glyph d="M545 756q0 167 -43 323.5t-135 327.5q-10 -47 -30 -136q-83 -385 -83 -550q0 -196 30.5 -363t86.5 -280l8 18q166 383 166 641v19zM358 1708q165 -210 251.5 -457.5t86.5 -505.5q0 -165 -73.5 -409t-212.5 -537q-82 72 -147.5 178t-117.5 250q-44 123 -68 249t-24 233 q0 141 77 393t228 606zM477 1880l-20 -72l-297 97l59 112z" glyph-name="Ograve" horiz-adv-x="750" unicode="Ò"/>
<glyph d="M545 756q0 167 -43 323.5t-135 327.5q-10 -47 -30 -136q-83 -385 -83 -550q0 -196 30.5 -363t86.5 -280l8 18q166 383 166 641v19zM358 1708q165 -210 251.5 -457.5t86.5 -505.5q0 -165 -73.5 -409t-212.5 -537q-82 72 -147.5 178t-117.5 250q-44 123 -68 249t-24 233 q0 141 77 393t228 606zM590 1810l-297 -96l-20 72l258 137z" glyph-name="Oacute" horiz-adv-x="750" unicode="Ó"/>
<glyph d="M545 756q0 167 -43 323.5t-135 327.5q-10 -47 -30 -136q-83 -385 -83 -550q0 -196 30.5 -363t86.5 -280l8 18q166 383 166 641v19zM358 1708q165 -210 251.5 -457.5t86.5 -505.5q0 -165 -73.5 -409t-212.5 -537q-82 72 -147.5 178t-117.5 250q-44 123 -68 249t-24 233 q0 141 77 393t228 606zM615 1774l-35 -54l-215 123l-166 -100l-64 61l222 174z" glyph-name="Ocircumflex" horiz-adv-x="750" unicode="Ô"/>
<glyph d="M545 756q0 167 -43 323.5t-135 327.5q-10 -47 -30 -136q-83 -385 -83 -550q0 -196 30.5 -363t86.5 -280l8 18q166 383 166 641v19zM358 1708q165 -210 251.5 -457.5t86.5 -505.5q0 -165 -73.5 -409t-212.5 -537q-82 72 -147.5 178t-117.5 250q-44 123 -68 249t-24 233 q0 141 77 393t228 606zM543 1751q-28 -23 -54 -35t-48 -12q-28 0 -68 28.5t-68 28.5q-23 0 -45.5 -16.5t-42.5 -48.5l-30 104q29 25 54 36t50 11q33 0 74 -28.5t59 -28.5q24 0 46 17.5t40 50.5z" glyph-name="Otilde" horiz-adv-x="750" unicode="Õ"/>
<glyph d="M545 756q0 167 -43 323.5t-135 327.5q-10 -47 -30 -136q-83 -385 -83 -550q0 -196 30.5 -363t86.5 -280l8 18q166 383 166 641v19zM358 1708q165 -210 251.5 -457.5t86.5 -505.5q0 -165 -73.5 -409t-212.5 -537q-82 72 -147.5 178t-117.5 250q-44 123 -68 249t-24 233 q0 141 77 393t228 606zM326 1827l-102 -146l-144 117l117 131zM670 1806l-104 -125l-146 119l125 119z" glyph-name="Odieresis" horiz-adv-x="750" unicode="Ö"/>
<glyph d="M1042 49l-139 -78q-15 26 -48 88q-121 221 -224 367q-33 -48 -130.5 -193t-156.5 -233l-186 127l377 362q-22 56 -98 159t-226 278q31 11 70 29.5t96 50.5q3 0 89 -137t171 -265l22 46q113 230 193 376l158 -33l-303 -456q164 -226 244 -342.5t91 -145.5z" glyph-name="multiply" horiz-adv-x="1145" unicode="×"/>
<glyph d="M397 201q43 111 64.5 239t21.5 271q0 37 -2 76.5t-6 78.5l-157 -361q9 -79 28.5 -154.5t50.5 -149.5zM489 1093q-9 82 -31 157t-57 147q-64 -157 -94.5 -283.5t-30.5 -236.5q0 -49 5 -117t14 -153zM836 1593l-193 -397q24 -83 35.5 -170.5t11.5 -181.5q0 -206 -77 -442 t-230 -496q-61 75 -107 160.5t-77 179.5l-129 -275l-37 25l123 315q-38 144 -57 271t-19 237q0 244 85 457.5t245 370.5q57 -56 103.5 -135.5t84.5 -184.5l127 320z" glyph-name="Oslash" horiz-adv-x="801" unicode="Ø"/>
<glyph d="M803 1611q5 -99 7.5 -175.5t2.5 -139.5q0 -387 -80 -775.5t-237 -762.5q-201 313 -303.5 680.5t-102.5 771.5q0 115 13.5 253t13.5 163v4q19 3 38.5 4.5t37.5 1.5q36 0 70 -3.5t66 -10.5q-26 -173 -39.5 -318.5t-13.5 -267.5q0 -227 48.5 -456t144.5 -459q80 230 120 495 t40 568q0 109 -8 216t-23 211q26 2 52.5 2.5t72.5 0.5q2 0 13 -1q35 -1 67 -2zM575 1880l-20 -72l-297 97l59 112z" glyph-name="Ugrave" horiz-adv-x="901" unicode="Ù"/>
<glyph d="M803 1611q5 -99 7.5 -175.5t2.5 -139.5q0 -387 -80 -775.5t-237 -762.5q-201 313 -303.5 680.5t-102.5 771.5q0 115 13.5 253t13.5 163v4q19 3 38.5 4.5t37.5 1.5q36 0 70 -3.5t66 -10.5q-26 -173 -39.5 -318.5t-13.5 -267.5q0 -227 48.5 -456t144.5 -459q80 230 120 495 t40 568q0 109 -8 216t-23 211q26 2 52.5 2.5t72.5 0.5q2 0 13 -1q35 -1 67 -2zM688 1810l-297 -96l-20 72l258 137z" glyph-name="Uacute" horiz-adv-x="901" unicode="Ú"/>
<glyph d="M803 1611q5 -99 7.5 -175.5t2.5 -139.5q0 -387 -80 -775.5t-237 -762.5q-201 313 -303.5 680.5t-102.5 771.5q0 115 13.5 253t13.5 163v4q19 3 38.5 4.5t37.5 1.5q36 0 70 -3.5t66 -10.5q-26 -173 -39.5 -318.5t-13.5 -267.5q0 -227 48.5 -456t144.5 -459q80 230 120 495 t40 568q0 109 -8 216t-23 211q26 2 52.5 2.5t72.5 0.5q2 0 13 -1q35 -1 67 -2zM713 1774l-35 -54l-215 123l-166 -100l-64 61l222 174z" glyph-name="Ucircumflex" horiz-adv-x="901" unicode="Û"/>
<glyph d="M803 1611q5 -99 7.5 -175.5t2.5 -139.5q0 -387 -80 -775.5t-237 -762.5q-201 313 -303.5 680.5t-102.5 771.5q0 115 13.5 253t13.5 163v4q19 3 38.5 4.5t37.5 1.5q36 0 70 -3.5t66 -10.5q-26 -173 -39.5 -318.5t-13.5 -267.5q0 -227 48.5 -456t144.5 -459q80 230 120 495 t40 568q0 109 -8 216t-23 211q26 2 52.5 2.5t72.5 0.5q2 0 13 -1q35 -1 67 -2zM424 1827l-102 -146l-144 117l117 131zM768 1806l-104 -125l-146 119l125 119z" glyph-name="Udieresis" horiz-adv-x="901" unicode="Ü"/>
<glyph d="M1403 1491l-359 -672q-16 -32 -79 -138.5t-91 -174.5q-30 -74 -44 -194q-5 -42 -9 -61l-92 -466h-10l-84 1001l-711 586l375 156l416 -654l481 734zM915 1810l-297 -96l-20 72l258 137z" glyph-name="Yacute" horiz-adv-x="1403" unicode="Ý"/>
<glyph d="M711 922q0 149 -122 234t-351 95l65 -903q231 169 319.5 294.5t88.5 270.5v9zM319 152l19 -256l-275 -17l74 1843l68 17l22 -320q351 -34 526 -158t175 -339q0 -231 -160.5 -435t-448.5 -335z" glyph-name="Thorn" horiz-adv-x="973" unicode="Þ"/>
<glyph d="M111 1591q89 26 169 38.5t154 12.5q204 0 316 -102.5t112 -290.5q0 -82 -29.5 -158.5t-89.5 -146.5q-13 -14 -37 -39.5t-34 -36.5q51 -114 75.5 -211t24.5 -182q0 -207 -147.5 -342.5t-403.5 -161.5l37 367q171 21 258.5 86t87.5 170q0 58 -25 123t-73 131 q94 90 145 175.5t51 152.5q0 69 -55.5 118t-134.5 49q-60 0 -130 -25t-149 -75l-79 -1272h-17z" glyph-name="germandbls" horiz-adv-x="913" unicode="ß"/>
<glyph d="M549 809q-31 162 -71.5 272t-69.5 121l-2 -3l-3 -7q-80 -193 -98 -322q37 -24 98 -39.5t146 -21.5zM385 1640q180 -218 276.5 -542.5t96.5 -714.5q0 -118 -12 -266.5t-37 -343.5q-31 288 -75 517.5t-102 411.5q-64 17 -125 27t-116 12l-27 -47q-16 -24 -67 -211 t-133 -523q-4 57 -5.5 121t-1.5 187q0 326 83.5 674.5t244.5 697.5zM518 1925l-20 -72l-297 97l59 112z" glyph-name="agrave" unicode="à"/>
<glyph d="M549 809q-31 162 -71.5 272t-69.5 121l-2 -3l-3 -7q-80 -193 -98 -322q37 -24 98 -39.5t146 -21.5zM385 1640q180 -218 276.5 -542.5t96.5 -714.5q0 -118 -12 -266.5t-37 -343.5q-31 288 -75 517.5t-102 411.5q-64 17 -125 27t-116 12l-27 -47q-16 -24 -67 -211 t-133 -523q-4 57 -5.5 121t-1.5 187q0 326 83.5 674.5t244.5 697.5zM631 1855l-297 -96l-20 72l258 137z" glyph-name="aacute" unicode="á"/>
<glyph d="M549 809q-31 162 -71.5 272t-69.5 121l-2 -3l-3 -7q-80 -193 -98 -322q37 -24 98 -39.5t146 -21.5zM385 1640q180 -218 276.5 -542.5t96.5 -714.5q0 -118 -12 -266.5t-37 -343.5q-31 288 -75 517.5t-102 411.5q-64 17 -125 27t-116 12l-27 -47q-16 -24 -67 -211 t-133 -523q-4 57 -5.5 121t-1.5 187q0 326 83.5 674.5t244.5 697.5zM656 1819l-35 -54l-215 123l-166 -100l-64 61l222 174z" glyph-name="acircumflex" unicode="â"/>
<glyph d="M549 809q-31 162 -71.5 272t-69.5 121l-2 -3l-3 -7q-80 -193 -98 -322q37 -24 98 -39.5t146 -21.5zM385 1640q180 -218 276.5 -542.5t96.5 -714.5q0 -118 -12 -266.5t-37 -343.5q-31 288 -75 517.5t-102 411.5q-64 17 -125 27t-116 12l-27 -47q-16 -24 -67 -211 t-133 -523q-4 57 -5.5 121t-1.5 187q0 326 83.5 674.5t244.5 697.5zM584 1796q-28 -23 -54 -35t-48 -12q-28 0 -68 28.5t-68 28.5q-23 0 -45.5 -16.5t-42.5 -48.5l-30 104q29 25 54 36t50 11q33 0 74 -28.5t59 -28.5q24 0 46 17.5t40 50.5z" glyph-name="atilde" unicode="ã"/>
<glyph d="M549 809q-31 162 -71.5 272t-69.5 121l-2 -3l-3 -7q-80 -193 -98 -322q37 -24 98 -39.5t146 -21.5zM385 1640q180 -218 276.5 -542.5t96.5 -714.5q0 -118 -12 -266.5t-37 -343.5q-31 288 -75 517.5t-102 411.5q-64 17 -125 27t-116 12l-27 -47q-16 -24 -67 -211 t-133 -523q-4 57 -5.5 121t-1.5 187q0 326 83.5 674.5t244.5 697.5zM367 1872l-102 -146l-144 117l117 131zM711 1851l-104 -125l-146 119l125 119z" glyph-name="adieresis" unicode="ä"/>
<glyph d="M549 809q-31 162 -71.5 272t-69.5 121l-2 -3l-3 -7q-80 -193 -98 -322q37 -24 98 -39.5t146 -21.5zM385 1640q180 -218 276.5 -542.5t96.5 -714.5q0 -118 -12 -266.5t-37 -343.5q-31 288 -75 517.5t-102 411.5q-64 17 -125 27t-116 12l-27 -47q-16 -24 -67 -211 t-133 -523q-4 57 -5.5 121t-1.5 187q0 326 83.5 674.5t244.5 697.5zM358 1843q26 50 51.5 73t53.5 23q33 0 62.5 -33.5t29.5 -72.5q0 -45 -44.5 -86t-94.5 -41q-56 0 -96.5 41t-40.5 96q0 32 17.5 66.5t57.5 79.5l43 -37q-32 -38 -43.5 -59t-11.5 -40q0 -37 17 -58t47 -21 q28 0 48.5 16.5t20.5 40.5q0 15 -7 24t-19 9q-14 0 -24.5 -12t-25.5 -44z" glyph-name="aring" unicode="å"/>
<glyph d="M594 934l-27 321l-131 -335zM1030 0h-356l-68 823l-209 4l-311 -833l-201 10l658 1428l360 14v-129h-194l16 -367l176 25l-6 -148l-156 -4l35 -684l230 41z" glyph-name="ae" horiz-adv-x="1065" unicode="æ"/>
<glyph d="M584 -98q68 -46 102.5 -95t34.5 -100q0 -50 -47 -99.5t-94 -49.5q-48 0 -96 49.5t-48 99.5q0 46 28.5 75.5t72.5 29.5q23 0 47 -17.5t45 -50.5l-39 -45q-15 22 -24 30.5t-17 8.5q-11 0 -20 -9t-9 -20q0 -28 17 -46.5t43 -18.5q25 0 46 19.5t21 43.5q0 43 -25.5 83.5 t-74.5 76.5zM924 -49q-386 71 -612 295.5t-226 531.5q0 119 42.5 247.5t123.5 252.5q78 120 173.5 206t217.5 146l27 -84v4q-181 -139 -289.5 -334t-108.5 -376v-15q0 -277 157 -468.5t468 -293.5z" glyph-name="ccedilla" horiz-adv-x="944" unicode="ç"/>
<glyph d="M874 344q-105 -90 -241.5 -181t-325.5 -198q-106 136 -168.5 358t-62.5 468q0 229 62.5 439t191.5 415l397 -193q-16 -1 -34 -1.5t-52 -0.5q-50 0 -111.5 2.5t-140.5 7.5q-43 -142 -61.5 -234.5t-18.5 -166.5v-10q58 5 99 7.5t73 2.5q13 0 29.5 -1t48.5 -3 q-53 -22 -114.5 -55t-127.5 -74v-31q0 -218 38 -353.5t122 -277.5q97 25 196 45t201 35zM552 1925l-20 -72l-297 97l59 112z" glyph-name="egrave" horiz-adv-x="854" unicode="è"/>
<glyph d="M874 344q-105 -90 -241.5 -181t-325.5 -198q-106 136 -168.5 358t-62.5 468q0 229 62.5 439t191.5 415l397 -193q-16 -1 -34 -1.5t-52 -0.5q-50 0 -111.5 2.5t-140.5 7.5q-43 -142 -61.5 -234.5t-18.5 -166.5v-10q58 5 99 7.5t73 2.5q13 0 29.5 -1t48.5 -3 q-53 -22 -114.5 -55t-127.5 -74v-31q0 -218 38 -353.5t122 -277.5q97 25 196 45t201 35zM665 1855l-297 -96l-20 72l258 137z" glyph-name="eacute" horiz-adv-x="854" unicode="é"/>
<glyph d="M874 344q-105 -90 -241.5 -181t-325.5 -198q-106 136 -168.5 358t-62.5 468q0 229 62.5 439t191.5 415l397 -193q-16 -1 -34 -1.5t-52 -0.5q-50 0 -111.5 2.5t-140.5 7.5q-43 -142 -61.5 -234.5t-18.5 -166.5v-10q58 5 99 7.5t73 2.5q13 0 29.5 -1t48.5 -3 q-53 -22 -114.5 -55t-127.5 -74v-31q0 -218 38 -353.5t122 -277.5q97 25 196 45t201 35zM690 1819l-35 -54l-215 123l-166 -100l-64 61l222 174z" glyph-name="ecircumflex" horiz-adv-x="854" unicode="ê"/>
<glyph d="M874 344q-105 -90 -241.5 -181t-325.5 -198q-106 136 -168.5 358t-62.5 468q0 229 62.5 439t191.5 415l397 -193q-16 -1 -34 -1.5t-52 -0.5q-50 0 -111.5 2.5t-140.5 7.5q-43 -142 -61.5 -234.5t-18.5 -166.5v-10q58 5 99 7.5t73 2.5q13 0 29.5 -1t48.5 -3 q-53 -22 -114.5 -55t-127.5 -74v-31q0 -218 38 -353.5t122 -277.5q97 25 196 45t201 35zM401 1872l-102 -146l-144 117l117 131zM745 1851l-104 -125l-146 119l125 119z" glyph-name="edieresis" horiz-adv-x="854" unicode="ë"/>
<glyph d="M256 1589q54 -151 81.5 -321.5t27.5 -352.5q0 -263 -27.5 -513t-79.5 -457q-86 186 -133 393t-47 401q0 233 48 461t130 389zM360 1925l-20 -72l-297 97l59 112z" glyph-name="igrave" horiz-adv-x="434" unicode="ì"/>
<glyph d="M256 1589q54 -151 81.5 -321.5t27.5 -352.5q0 -263 -27.5 -513t-79.5 -457q-86 186 -133 393t-47 401q0 233 48 461t130 389zM473 1855l-297 -96l-20 72l258 137z" glyph-name="iacute" horiz-adv-x="434" unicode="í"/>
<glyph d="M256 1589q54 -151 81.5 -321.5t27.5 -352.5q0 -263 -27.5 -513t-79.5 -457q-86 186 -133 393t-47 401q0 233 48 461t130 389zM498 1819l-35 -54l-215 123l-166 -100l-64 61l222 174z" glyph-name="icircumflex" horiz-adv-x="434" unicode="î"/>
<glyph d="M256 1589q54 -151 81.5 -321.5t27.5 -352.5q0 -263 -27.5 -513t-79.5 -457q-86 186 -133 393t-47 401q0 233 48 461t130 389zM209 1872l-102 -146l-144 117l117 131zM553 1851l-104 -125l-146 119l125 119z" glyph-name="idieresis" horiz-adv-x="434" unicode="ï"/>
<glyph d="M246 264q112 131 168.5 294t56.5 355q0 148 -40 255t-128 198l-29 -510l111 -6l-23 -64h-92l-3 -56q-21 -360 -21 -443v-23zM103 -147q2 251 9 485.5t17 445.5h-123l14 93l113 -9q11 209 25 409.5t30 393.5q233 -90 361.5 -300t128.5 -501v-26q0 -251 -147.5 -506 t-427.5 -485z" glyph-name="eth" horiz-adv-x="801" unicode="ð"/>
<glyph d="M956 1389q-28 -24 -53.5 -36t-48.5 -12q-28 0 -68 29t-67 29q-24 0 -46 -16.5t-42 -49.5l-31 105q29 24 54.5 35.5t50.5 11.5q33 0 74 -29t59 -29q23 0 45.5 17.5t40.5 50.5zM1470 1157l-491 -1358l-676 1200l80 -976l-248 12v1421l787 -1116l432 887z" glyph-name="ntilde" horiz-adv-x="1462" unicode="ñ"/>
<glyph d="M385 92q61 145 93 331t32 400q0 233 -28.5 397.5t-88.5 274.5q-54 -157 -85.5 -356.5t-31.5 -393.5q0 -183 27 -345t82 -308zM406 1702q145 -164 226 -397t81 -488q0 -220 -94.5 -500.5t-258.5 -533.5q-150 224 -228.5 470.5t-78.5 496.5q0 235 90 478t263 474zM485 1925 l-20 -72l-297 97l59 112z" glyph-name="ograve" horiz-adv-x="766" unicode="ò"/>
<glyph d="M385 92q61 145 93 331t32 400q0 233 -28.5 397.5t-88.5 274.5q-54 -157 -85.5 -356.5t-31.5 -393.5q0 -183 27 -345t82 -308zM406 1702q145 -164 226 -397t81 -488q0 -220 -94.5 -500.5t-258.5 -533.5q-150 224 -228.5 470.5t-78.5 496.5q0 235 90 478t263 474zM598 1855 l-297 -96l-20 72l258 137z" glyph-name="oacute" horiz-adv-x="766" unicode="ó"/>
<glyph d="M385 92q61 145 93 331t32 400q0 233 -28.5 397.5t-88.5 274.5q-54 -157 -85.5 -356.5t-31.5 -393.5q0 -183 27 -345t82 -308zM406 1702q145 -164 226 -397t81 -488q0 -220 -94.5 -500.5t-258.5 -533.5q-150 224 -228.5 470.5t-78.5 496.5q0 235 90 478t263 474zM623 1819 l-35 -54l-215 123l-166 -100l-64 61l222 174z" glyph-name="ocircumflex" horiz-adv-x="766" unicode="ô"/>
<glyph d="M385 92q61 145 93 331t32 400q0 233 -28.5 397.5t-88.5 274.5q-54 -157 -85.5 -356.5t-31.5 -393.5q0 -183 27 -345t82 -308zM406 1702q145 -164 226 -397t81 -488q0 -220 -94.5 -500.5t-258.5 -533.5q-150 224 -228.5 470.5t-78.5 496.5q0 235 90 478t263 474zM551 1796 q-28 -23 -54 -35t-48 -12q-28 0 -68 28.5t-68 28.5q-23 0 -45.5 -16.5t-42.5 -48.5l-30 104q29 25 54 36t50 11q33 0 74 -28.5t59 -28.5q24 0 46 17.5t40 50.5z" glyph-name="otilde" horiz-adv-x="766" unicode="õ"/>
<glyph d="M385 92q61 145 93 331t32 400q0 233 -28.5 397.5t-88.5 274.5q-54 -157 -85.5 -356.5t-31.5 -393.5q0 -183 27 -345t82 -308zM406 1702q145 -164 226 -397t81 -488q0 -220 -94.5 -500.5t-258.5 -533.5q-150 224 -228.5 470.5t-78.5 496.5q0 235 90 478t263 474zM334 1872 l-102 -146l-144 117l117 131zM678 1851l-104 -125l-146 119l125 119z" glyph-name="odieresis" horiz-adv-x="766" unicode="ö"/>
<glyph d="M580 563l-80 -102l-119 74l90 102zM819 881l-6 -158l-657 29l-23 100zM545 1034l-80 -73l-103 73l93 80z" glyph-name="divide" horiz-adv-x="948" unicode="÷"/>
<glyph d="M385 201q44 117 66 245.5t22 264.5q0 36 -2.5 74t-7.5 81l-156 -360q9 -78 28.5 -155t49.5 -150zM479 1093q-9 81 -31.5 156.5t-58.5 147.5q-63 -155 -94 -279.5t-31 -224.5q0 -58 5 -126.5t16 -160.5zM825 1593l-194 -397q23 -85 35 -168.5t12 -167.5q0 -218 -77 -456 t-230 -498q-61 75 -107 160.5t-78 179.5l-127 -275l-39 25l123 315q-38 143 -56.5 274.5t-18.5 254.5q0 227 86.5 438.5t244.5 368.5q59 -61 105.5 -140t81.5 -180l127 320z" glyph-name="oslash" horiz-adv-x="756" unicode="ø"/>
<glyph d="M909 1612l-30 -399q-75 -971 -109 -1391q-353 149 -528.5 398t-175.5 601q0 194 52.5 403t160.5 443l202 -78q-48 -138 -73 -317.5t-25 -392.5q0 -368 81 -616.5t230 -337.5q7 358 13 784t10 899zM692 1925l-20 -72l-297 97l59 112z" glyph-name="ugrave" horiz-adv-x="981" unicode="ù"/>
<glyph d="M909 1612l-30 -399q-75 -971 -109 -1391q-353 149 -528.5 398t-175.5 601q0 194 52.5 403t160.5 443l202 -78q-48 -138 -73 -317.5t-25 -392.5q0 -368 81 -616.5t230 -337.5q7 358 13 784t10 899zM805 1855l-297 -96l-20 72l258 137z" glyph-name="uacute" horiz-adv-x="981" unicode="ú"/>
<glyph d="M909 1612l-30 -399q-75 -971 -109 -1391q-353 149 -528.5 398t-175.5 601q0 194 52.5 403t160.5 443l202 -78q-48 -138 -73 -317.5t-25 -392.5q0 -368 81 -616.5t230 -337.5q7 358 13 784t10 899zM830 1819l-35 -54l-215 123l-166 -100l-64 61l222 174z" glyph-name="ucircumflex" horiz-adv-x="981" unicode="û"/>
<glyph d="M909 1612l-30 -399q-75 -971 -109 -1391q-353 149 -528.5 398t-175.5 601q0 194 52.5 403t160.5 443l202 -78q-48 -138 -73 -317.5t-25 -392.5q0 -368 81 -616.5t230 -337.5q7 358 13 784t10 899zM541 1872l-102 -146l-144 117l117 131zM885 1851l-104 -125l-146 119 l125 119z" glyph-name="udieresis" horiz-adv-x="981" unicode="ü"/>
<glyph d="M786 1448l-446 -971l111 -715l-129 -30q-13 80 -52.5 455.5t-103.5 627.5t-90 427t-27 339l211 -22l35 -719l303 661zM625 1855l-297 -96l-20 72l258 137z" glyph-name="yacute" horiz-adv-x="750" unicode="ý"/>
<glyph d="M270 324q114 60 189.5 185t75.5 253q0 136 -69.5 263.5t-162.5 164.5zM305 1253q213 -28 341 -159t128 -318q0 -166 -128 -306t-378 -247l-12 -348l-113 2q-31 421 -50.5 841.5t-26.5 835.5l249 -8z" glyph-name="thorn" unicode="þ"/>
<glyph d="M786 1448l-446 -971l111 -715l-129 -30q-13 80 -52.5 455.5t-103.5 627.5t-90 427t-27 339l211 -22l35 -719l303 661zM361 1872l-102 -146l-144 117l117 131zM705 1851l-104 -125l-146 119l125 119z" glyph-name="ydieresis" horiz-adv-x="750" unicode="ÿ"/>
<glyph d="M629 -72l-127 -133v-4q-220 218 -326 448.5t-106 489.5q0 238 78 472.5t247 500.5l117 -76q-120 -235 -175.5 -440t-55.5 -408q0 -241 83.5 -446t264.5 -404zM625 1810l-297 -96l-20 72l258 137z" glyph-name="Cacute" horiz-adv-x="637" unicode="Ć"/>
<glyph d="M924 -49q-386 71 -612 295.5t-226 531.5q0 119 42.5 247.5t123.5 252.5q78 120 173.5 206t217.5 146l27 -84v4q-181 -139 -289.5 -334t-108.5 -376v-15q0 -277 157 -468.5t468 -293.5zM760 1855l-297 -96l-20 72l258 137z" glyph-name="cacute" horiz-adv-x="944" unicode="ć"/>
<glyph d="M629 -72l-127 -133v-4q-220 218 -326 448.5t-106 489.5q0 238 78 472.5t247 500.5l117 -76q-120 -235 -175.5 -440t-55.5 -408q0 -241 83.5 -446t264.5 -404zM652 1856l-209 -187l-273 184l29 56l223 -109l160 113z" glyph-name="Ccaron" horiz-adv-x="637" unicode="Č"/>
<glyph d="M924 -49q-386 71 -612 295.5t-226 531.5q0 119 42.5 247.5t123.5 252.5q78 120 173.5 206t217.5 146l27 -84v4q-181 -139 -289.5 -334t-108.5 -376v-15q0 -277 157 -468.5t468 -293.5zM787 1901l-209 -187l-273 184l29 56l223 -109l160 113z" glyph-name="ccaron" horiz-adv-x="944" unicode="č"/>
<glyph d="M246 264q112 131 168.5 294t56.5 355q0 148 -40 255t-128 198l-29 -510l111 -6l-23 -64h-92l-3 -56q-21 -360 -21 -443v-23zM103 -147q2 251 9 485.5t17 445.5h-123l14 93l113 -9q11 209 25 409.5t30 393.5q233 -90 361.5 -300t128.5 -501v-26q0 -251 -147.5 -506 t-427.5 -485z" glyph-name="dcroat" horiz-adv-x="801" unicode="đ"/>
<glyph d="M764 1028l-62 -1157q-305 117 -473 343t-168 519q0 102 40 237t114 283q75 151 156.5 258.5t169.5 171.5v5l45 -93q-167 -178 -263 -388.5t-96 -391.5q0 -228 102.5 -409t291.5 -285l-9 733l-204 -90l-52 98zM713 1765q-49 -22 -100 -33.5t-105 -11.5q-42 0 -86 12 t-92 38l26 75q49 -17 92.5 -26t79.5 -9q38 0 72.5 11t67.5 32z" glyph-name="Gbreve" horiz-adv-x="842" unicode="Ğ"/>
<glyph d="M797 870l-170 -968q-295 116 -434.5 326.5t-139.5 537.5q0 314 157 573t419 377l8 -112q-192 -161 -292.5 -370.5t-100.5 -451.5q0 -227 70.5 -392.5t220.5 -287.5l43 605l-146 -7l-22 154zM699 1810q-49 -22 -100 -33.5t-105 -11.5q-42 0 -86 12t-92 38l26 75 q49 -17 92.5 -26t79.5 -9q38 0 72.5 11t67.5 32z" glyph-name="gbreve" horiz-adv-x="852" unicode="ğ"/>
<glyph d="M250 1384q57 -131 87 -281t30 -308q0 -275 -29 -487.5t-86 -362.5q-90 162 -140.5 346.5t-50.5 349.5q0 200 52 403.5t137 339.5zM350 1589l-100 -139l-103 106l89 140zM379 1806l-104 -125l-146 119l125 119z" glyph-name="Idotaccent" horiz-adv-x="430" unicode="İ"/>
<glyph d="M256 1589q54 -151 81.5 -321.5t27.5 -352.5q0 -263 -27.5 -513t-79.5 -457q-86 186 -133 393t-47 401q0 233 48 461t130 389z" glyph-name="dotlessi" horiz-adv-x="434" unicode="ı"/>
<glyph d="M678 492l-16 -482l-578 33l27 680l-99 -51l-39 55l142 84q10 266 16.5 449t8.5 282q19 1 38 1.5t43 0.5h-2q19 0 55 -2l25 -6l-6 -645l211 127l41 -94l-254 -136l-4 -415z" glyph-name="Lslash" horiz-adv-x="770" unicode="Ł"/>
<glyph d="M741 98q-9 -54 -15 -107.5t-7 -102.5q-58 4 -256 33q-113 16 -180 26q-24 54 -45 229.5t-37 460.5l-148 -86l-41 94l172 92l-127 936l332 31l-16 -889l170 90l39 -55l-211 -127l-13 -655z" glyph-name="lslash" horiz-adv-x="868" unicode="ł"/>
<glyph d="M694 657q0 276 -51 486t-143 317q-143 -107 -215 -273t-72 -388q0 -196 61.5 -385t178.5 -353l2 5q31 31 59.5 73t52.5 94q58 121 92.5 240.5t34.5 179.5v4zM1241 1573l-4 -154l-231 -2q-8 -92 -11.5 -182.5t-3.5 -179.5v-27h223l-12 -149l-207 -17l-80 -807l273 13v-138 l-389 -4l12 533q-11 -36 -24 -68.5t-27 -62.5l-66 -152q-13 -31 -70.5 -110.5t-140.5 -180.5q-198 151 -310 387.5t-112 503.5q0 225 110.5 437t328.5 403q97 -94 178 -232.5t149 -326.5l13 526z" glyph-name="OE" horiz-adv-x="1294" unicode="Œ"/>
<glyph d="M682 657q0 279 -51 488.5t-144 314.5q-141 -108 -212.5 -273.5t-71.5 -387.5q0 -197 61 -386.5t176 -351.5l2 5q35 34 63.5 76t51.5 94q56 120 90.5 239t34.5 178v4zM1229 1573l-4 -154l-230 -2q-8 -112 -12 -201t-4 -161v-27h223l-10 -149l-209 -17l-80 -807l273 13 v-138l-390 -4l15 533q-12 -36 -24.5 -68.5t-26.5 -62.5l-68 -152q-16 -36 -72 -114t-137 -177q-197 146 -310.5 385t-113.5 506q0 224 110.5 435.5t327.5 404.5q99 -96 180 -234t148 -325l12 526z" glyph-name="oe" horiz-adv-x="1247" unicode="œ"/>
<glyph d="M653 1618q-167 -131 -248 -257t-81 -253q0 -56 15.5 -119.5t47.5 -134.5q16 -37 49 -108q139 -302 139 -461q0 -181 -101.5 -308t-305.5 -200l-18 112q119 65 178 166.5t59 241.5q0 101 -17 173.5t-51 115.5q-145 192 -204.5 317t-59.5 232q0 151 130.5 284t394.5 250z M329 -80q67 -44 101 -93.5t34 -100.5t-45.5 -100.5t-93.5 -49.5q-49 0 -96 49.5t-47 100.5q0 45 28.5 74.5t71.5 29.5q22 0 44.5 -17t45.5 -51l-39 -44q-12 19 -22 28.5t-19 9.5q-10 0 -19 -9t-9 -19q0 -28 17 -47t42 -19q27 0 47.5 20.5t20.5 49.5q0 40 -26 79.5t-75 73.5z " glyph-name="Scedilla" horiz-adv-x="647" unicode="Ş"/>
<glyph d="M750 604q-53 -220 -215 -416.5t-431 -367.5l-24 82q193 163 302 316t136 298q-186 186 -302.5 369t-178.5 385q112 139 249 247t300 185l57 -68q-132 -72 -236 -161t-182 -197q105 -203 237 -372t288 -300zM385 -80q67 -44 101 -93.5t34 -100.5t-45.5 -100.5t-93.5 -49.5 q-49 0 -96 49.5t-47 100.5q0 45 28.5 74.5t71.5 29.5q22 0 44.5 -17t45.5 -51l-39 -44q-12 19 -22 28.5t-19 9.5q-10 0 -19 -9t-9 -19q0 -28 17 -47t42 -19q27 0 47.5 20.5t20.5 49.5q0 40 -26 79.5t-75 73.5z" glyph-name="scedilla" horiz-adv-x="827" unicode="ş"/>
<glyph d="M653 1618q-167 -131 -248 -257t-81 -253q0 -56 15.5 -119.5t47.5 -134.5q16 -37 49 -108q139 -302 139 -461q0 -181 -101.5 -308t-305.5 -200l-18 112q119 65 178 166.5t59 241.5q0 101 -17 173.5t-51 115.5q-145 192 -204.5 317t-59.5 232q0 151 130.5 284t394.5 250z M699 1856l-209 -187l-273 184l29 56l223 -109l160 113z" glyph-name="Scaron" horiz-adv-x="647" unicode="Š"/>
<glyph d="M750 604q-53 -220 -215 -416.5t-431 -367.5l-24 82q193 163 302 316t136 298q-186 186 -302.5 369t-178.5 385q112 139 249 247t300 185l57 -68q-132 -72 -236 -161t-182 -197q105 -203 237 -372t288 -300zM670 1901l-209 -187l-273 184l29 56l223 -109l160 113z" glyph-name="scaron" horiz-adv-x="827" unicode="š"/>
<glyph d="M1403 1491l-359 -672q-16 -32 -79 -138.5t-91 -174.5q-30 -74 -44 -194q-5 -42 -9 -61l-92 -466h-10l-84 1001l-711 586l375 156l416 -654l481 734zM651 1827l-102 -146l-144 117l117 131zM995 1806l-104 -125l-146 119l125 119z" glyph-name="Ydieresis" horiz-adv-x="1403" unicode="Ÿ"/>
<glyph d="M899 1556l-680 -1396l385 -27l-59 -264l-606 119l630 1435l-460 19l26 170zM750 1856l-209 -187l-273 184l29 56l223 -109l160 113z" glyph-name="Zcaron" horiz-adv-x="827" unicode="Ž"/>
<glyph d="M766 1640l-512 -1384l397 -47l-147 -408l-549 187l580 1519l-299 -88l-27 172zM705 1901l-209 -187l-273 184l29 56l223 -109l160 113z" glyph-name="zcaron" horiz-adv-x="766" unicode="ž"/>
<glyph d="M727 1524q-173 -111 -246 -225t-73 -269q0 -63 10 -142t33 -186l227 -8l2 -49l-219 -6q38 -163 57 -284.5t19 -207.5q0 -200 -112.5 -316.5t-358.5 -170.5q-3 20 -5 43t-2 43v29q170 64 253 177t83 281q0 61 -17 165.5t-48 236.5l-209 -6l10 84l184 -6q-26 132 -38.5 232 t-12.5 175q0 186 97.5 298.5t340.5 203.5q11 -22 17 -44.5t8 -47.5z" glyph-name="florin" horiz-adv-x="827" unicode="ƒ"/>
<glyph d="M713 1819l-35 -54l-215 123l-166 -100l-64 61l222 174z" glyph-name="circumflex" horiz-adv-x="946" unicode="ˆ"/>
<glyph d="M715 1901l-209 -187l-273 184l29 56l223 -109l160 113z" glyph-name="caron" horiz-adv-x="946" unicode="ˇ"/>
<glyph d="M659 1772l-399 40l14 68l385 12v-120z" glyph-name="macron" horiz-adv-x="946" unicode="ˉ"/>
<glyph d="M666 1810q-49 -22 -100 -33.5t-105 -11.5q-42 0 -86 12t-92 38l26 75q49 -17 92.5 -26t79.5 -9q38 0 72.5 11t67.5 32z" glyph-name="breve" horiz-adv-x="946" unicode="˘"/>
<glyph d="M598 1851l-104 -125l-146 119l125 119z" glyph-name="dotaccent" horiz-adv-x="946" unicode="˙"/>
<glyph d="M414 1825q26 50 51.5 73t54.5 23q33 0 61.5 -33.5t28.5 -72.5q0 -46 -44 -86.5t-93 -40.5q-56 0 -97.5 40.5t-41.5 96.5q0 31 18 65.5t58 79.5l45 -37q-32 -37 -44 -58.5t-12 -39.5q0 -38 16 -59t46 -21q28 0 48.5 17t20.5 40q0 15 -6.5 24t-17.5 9q-15 0 -26 -12 t-23 -43z" glyph-name="ring" horiz-adv-x="946" unicode="˚"/>
<glyph d="M590 -383l-117 -76q-50 81 -70 134t-20 98q0 44 11.5 95t35.5 109l86 -32q-12 -35 -18 -67.5t-6 -65.5q0 -50 23.5 -97t74.5 -98z" glyph-name="ogonek" horiz-adv-x="946" unicode="˛"/>
<glyph d="M641 1796q-28 -23 -54 -35t-48 -12q-28 0 -68 28.5t-68 28.5q-23 0 -45.5 -16.5t-42.5 -48.5l-30 104q29 25 54 36t50 11q33 0 74 -28.5t59 -28.5q24 0 46 17.5t40 50.5z" glyph-name="tilde" horiz-adv-x="946" unicode="˜"/>
<glyph d="M526 1905l-153 -222l-41 31l112 252zM727 1903l-221 -222l-35 45l166 238z" glyph-name="hungarumlaut" horiz-adv-x="946" unicode="˝"/>
<glyph d="M911 870l-22 -102l-850 -29l-4 160z" glyph-name="endash" horiz-adv-x="946" unicode="–"/>
<glyph d="M1419 774l-1362 -41l25 103l1276 131z" glyph-name="emdash" horiz-adv-x="1540" unicode="—"/>
<glyph d="M240 1634q-39 -40 -59.5 -96t-20.5 -121q0 -39 6.5 -74.5t19.5 -68.5l-94 -33q-27 56 -40 110t-13 109q0 60 14.5 122t44.5 126z" glyph-name="quoteleft" horiz-adv-x="279" unicode="‘"/>
<glyph d="M180 1708q29 -65 43.5 -127t14.5 -121q0 -52 -13.5 -106t-40.5 -113l-94 33q14 32 20.5 67t6.5 76q0 63 -21 119.5t-59 97.5z" glyph-name="quoteright" horiz-adv-x="279" unicode="’"/>
<glyph d="M178 276q33 -71 49.5 -135t16.5 -118q0 -55 -13 -107.5t-38 -105.5l-94 30q13 35 19.5 71.5t6.5 74.5q0 58 -22.5 114.5t-63.5 100.5z" glyph-name="quotesinglbase" horiz-adv-x="283" unicode="‚"/>
<glyph d="M199 1616q-40 -38 -61 -95t-21 -124q0 -38 6.5 -73.5t19.5 -68.5l-92 -34q-27 55 -41 110t-14 111q0 59 14.5 120t44.5 128zM410 1577q-35 -48 -51.5 -96.5t-16.5 -100.5q0 -38 2.5 -70t7.5 -62l-73 -27q-22 58 -32.5 111.5t-10.5 103.5q0 42 12.5 95t38.5 122z" glyph-name="quotedblleft" horiz-adv-x="406" unicode="“"/>
<glyph d="M106 1653q27 -73 39.5 -125.5t12.5 -91.5q0 -50 -11 -103.5t-32 -111.5l-74 26q6 46 8 73t2 48q0 59 -16.5 110t-50.5 99zM338 1690q30 -68 44.5 -129.5t14.5 -118.5q0 -55 -13 -109.5t-40 -111.5l-94 34q14 39 21.5 74t7.5 68q0 65 -22 122.5t-60 96.5z" glyph-name="quotedblright" horiz-adv-x="406" unicode="”"/>
<glyph d="M117 262q26 -69 38.5 -122.5t12.5 -96.5q0 -47 -10 -99.5t-31 -113.5l-76 27q5 27 7.5 59t2.5 74q0 52 -16 99.5t-51 96.5zM350 297q29 -62 43.5 -123.5t14.5 -122.5q0 -54 -13.5 -109t-40.5 -110l-94 33q14 32 20.5 67t6.5 76q0 65 -21 121t-59 96z" glyph-name="quotedblbase" horiz-adv-x="432" unicode="„"/>
<glyph d="M913 1108l-352 -35v-1067l-84 6l-63 1057l-348 -18l-23 86l354 39l-16 335h186l6 -323l328 45z" glyph-name="dagger" horiz-adv-x="940" unicode="†"/>
<glyph d="M915 711l-380 20l-17 -729h-82l-43 735l-362 15v120l358 -30q-1 14 -2.5 31.5l-4.5 52.5l-380 -13l-20 76l401 43l-27 479l189 -2l6 -460l352 43l6 -142l-370 -14l-2 -109l378 -30v-86z" glyph-name="daggerdbl" horiz-adv-x="942" unicode="‡"/>
<glyph d="M238 942q41 31 79.5 46.5t73.5 15.5q54 0 95.5 -48.5t41.5 -109.5q0 -68 -76.5 -126t-166.5 -58q-77 0 -140 66.5t-63 148.5q0 68 40.5 129t121.5 116l59 -59q-63 -46 -95 -92t-32 -90q0 -50 34.5 -82.5t86.5 -32.5q45 0 70.5 27.5t25.5 74.5q0 17 -8 24t-27 7 q-15 0 -38 -10.5t-52 -30.5z" glyph-name="bullet" horiz-adv-x="588" unicode="•"/>
<glyph d="M322 180l-146 -180l-127 174l127 135zM700 180l-145 -180l-127 174l127 135zM1077 180l-145 -180l-127 174l127 135z" glyph-name="ellipsis" horiz-adv-x="1133" unicode="…"/>
<glyph d="M727 217q41 45 59.5 94.5t18.5 112.5q0 106 -21 186t-55 107q-37 -50 -56.5 -115t-19.5 -139q0 -68 18.5 -128.5t55.5 -117.5zM367 967q33 28 49 105.5t16 207.5q0 48 -14.5 86t-44.5 72q-26 -41 -37.5 -80.5t-11.5 -85.5q0 -120 11.5 -202t31.5 -103zM1161 217 q42 45 61 94.5t19 114.5q0 103 -21.5 183t-54.5 108q-36 -44 -55.5 -110.5t-19.5 -143.5q0 -69 17.5 -129.5t53.5 -116.5zM727 766q84 -23 136 -101t52 -182q0 -97 -49 -184.5t-139 -148.5q-84 78 -128 159t-44 158q0 89 46 168.5t126 130.5zM1122 1604l-1024 -1575l-28 18 l833 1616zM373 889q-80 39 -128 119t-48 174q0 79 45 163.5t131 165.5q81 -50 122.5 -125.5t41.5 -173.5q0 -61 -43.5 -147t-120.5 -176zM1161 766q84 -23 136.5 -101t52.5 -182q0 -99 -49.5 -186.5t-139.5 -146.5q-83 78 -126.5 159t-43.5 158q0 89 45.5 169.5t124.5 129.5 z" glyph-name="perthousand" horiz-adv-x="1516" unicode="‰"/>
<glyph d="M397 1262l-211 -449l183 -414l-52 -16l-272 446q89 117 168 227t149 216z" glyph-name="guilsinglleft" horiz-adv-x="451" unicode="‹"/>
<glyph d="M399 899l-262 -522l-51 16l176 459l-203 403l33 13q97 -111 290 -346q10 -12 15 -19z" glyph-name="guilsinglright" horiz-adv-x="451" unicode="›"/>
<glyph d="M844 1569l-58 -242l-446 121l-18 -234l344 -49l-13 -106l-340 18l-75 -1286l-27 -2l-98 1845zM1022 604q137 93 222 247t85 304q0 120 -51 188t-182 121zM952 1657q275 -40 422.5 -170t147.5 -334q0 -193 -101 -353.5t-331 -328.5q123 -188 223.5 -325.5t185.5 -235.5 l-221 -115l-256 570l21 -562l-140 4q25 633 37 1096.5t12 753.5z" glyph-name="franc" horiz-adv-x="1589" unicode="₣"/>
<glyph d="M956 221q-205 -175 -567 -379q-103 133 -167 360t-64 486v14l-127 9v120l131 -14l12 121l-172 -4l-20 76l208 24q62 347 222 600l397 -192q-29 -2 -86 -2q-99 0 -252 10q-57 -194 -82 -393l309 35l7 -142l-320 -8v-63l6 -88l320 -35v-86l-312 18q29 -280 160 -547 q193 50 397 80z" glyph-name="Euro" horiz-adv-x="854" unicode="€"/>
<glyph d="M14 1446h209v-49h-73v-195h-60v195h-76v49zM272 1446h84l58 -148l53 148h84v-244h-57v182l-68 -182h-27l-69 182v-182h-58v244z" glyph-name="trademark" horiz-adv-x="598" unicode="™"/>
<glyph d="M1473 156v-156h-590v150q193 111 296 279t103 374q0 251 -137 405t-359 154q-221 0 -359 -155t-138 -404q0 -205 103 -373.5t298 -279.5v-150h-590v156h332q-164 133 -242.5 285t-78.5 335q0 329 188.5 533t486.5 204q299 0 487.5 -202.5t188.5 -530.5 q0 -186 -78.5 -338.5t-242.5 -285.5h332z" glyph-name="Omega" horiz-adv-x="1573" unicode="Ω"/>
<glyph d="M754 604q13 81 19.5 161.5t6.5 158.5q0 140 -39.5 216.5t-111.5 76.5q-53 0 -117 -63.5t-109 -63.5q-29 0 -51 21.5t-22 51.5q0 59 68 105.5t163 46.5q171 0 273 -152.5t102 -412.5q0 -335 -139 -555t-344 -220q-147 0 -241.5 106.5t-94.5 272.5q0 189 108.5 316 t266.5 127q99 0 162.5 -47t99.5 -146zM709 483q0 117 -45 180.5t-127 63.5q-113 0 -184.5 -127.5t-71.5 -333.5q0 -117 44 -178t128 -61q111 0 183.5 128t72.5 328z" glyph-name="partialdiff" horiz-adv-x="1044" unicode="∂"/>
<glyph d="M1122 158l-444 1138l-445 -1138h889zM780 1473l586 -1473h-1374l586 1473h202z" glyph-name="Delta" horiz-adv-x="1356" unicode="∆"/>
<glyph d="M160 1473h1208v-1866h-201v1693h-809v-1693h-198v1866z" glyph-name="product" horiz-adv-x="1528" unicode="∏"/>
<glyph d="M51 1473h1239v-166h-989l690 -744l-719 -792h1035v-164h-1289v139l738 813l-705 758v156z" glyph-name="summation" horiz-adv-x="1346" unicode="∑"/>
<glyph d="M825 881l-6 -158l-659 29l-23 100z" glyph-name="minus" horiz-adv-x="952" unicode="−"/>
<glyph d="M795 1503l-1076 -1757l-26 16l921 1870z" glyph-name="fraction" horiz-adv-x="541" unicode="∕"/>
<glyph d="M1288 1647v-82h-119l-594 -1606h-53l-323 893l-119 -43l-23 68l262 92l265 -729l522 1407h182z" glyph-name="radical" horiz-adv-x="1288" unicode="√"/>
<glyph d="M905 559q51 -95 119 -141.5t156 -46.5q102 0 168.5 71t66.5 181q0 108 -61 179.5t-152 71.5q-85 0 -153.5 -72.5t-143.5 -242.5zM803 666q-51 95 -119 142.5t-154 47.5q-105 0 -171 -71t-66 -183q0 -108 61 -179t152 -71q85 0 152 69t145 245zM840 727q67 138 146 204 t175 66q134 0 226 -108.5t92 -272.5q0 -171 -82 -277t-213 -106q-96 0 -169 60t-149 201q-71 -138 -148 -201.5t-173 -63.5q-134 0 -226 109t-92 272q0 172 82.5 277.5t214.5 105.5q97 0 172 -63t144 -203z" glyph-name="infinity" horiz-adv-x="1706" unicode="∞"/>
<glyph d="M301 -268q103 0 116 664q3 141 5 216q12 503 102 719.5t281 216.5q76 0 122 -39t46 -104q0 -48 -31 -77.5t-82 -29.5q-53 0 -85 35t-32 92q0 8 -6 15.5t-14 7.5q-105 0 -119 -634q-3 -157 -6 -245q-10 -308 -31.5 -461t-62.5 -247q-49 -114 -123 -173t-168 -59 q-73 0 -119.5 38t-46.5 97q0 53 31.5 84t83.5 31q47 0 79.5 -29t32.5 -67q0 -24 7.5 -37.5t19.5 -13.5z" glyph-name="integral" horiz-adv-x="1020" unicode="∫"/>
<glyph d="M1530 453q-107 -75 -202 -110.5t-187 -35.5q-98 0 -288 69.5t-290 69.5q-82 0 -169.5 -35.5t-215.5 -123.5v131q106 73 202 109t185 36q111 0 301.5 -68.5t276.5 -68.5q85 0 173.5 35.5t213.5 122.5v-131zM1530 803q-104 -73 -200 -108.5t-187 -35.5q-100 0 -290 69 t-290 69q-83 0 -171.5 -36t-213.5 -122v131q106 73 202 109t185 36q111 0 300.5 -68.5t277.5 -68.5q87 0 175 35t212 121v-131z" glyph-name="approxequal" horiz-adv-x="1706" unicode="≈"/>
<glyph d="M1298 1110l-196 -250h350v-115h-424l-211 -270h635v-115h-709l-251 -319l-89 70l197 249h-346v115h420l211 270h-631v115h704l252 320z" glyph-name="notequal" horiz-adv-x="1706" unicode="≠"/>
<glyph d="M1444 150v-117h-1182v117h1182zM1444 1067l-977 -324l977 -323v-125l-1182 399v101l1182 397v-125z" glyph-name="lessequal" horiz-adv-x="1706" unicode="≤"/>
<glyph d="M1444 150v-117h-1182v117h1182zM1444 795v-101l-1182 -399v125l979 323l-979 324v125z" glyph-name="greaterequal" horiz-adv-x="1706" unicode="≥"/>
<glyph d="M571 1354q60 -133 87.5 -275.5t27.5 -339.5q0 -196 -27.5 -338.5t-87.5 -275.5q115 58 225.5 85.5t227.5 27.5q118 0 228.5 -27.5t224.5 -85.5q-60 134 -87.5 276.5t-27.5 337.5q0 196 27.5 339t87.5 276q-112 -58 -223 -85.5t-230 -27.5q-118 0 -228.5 27.5t-224.5 85.5 zM410 1436l69 77q137 -82 269 -120.5t276 -38.5t276 38.5t269 120.5l69 -77q-85 -153 -123 -314.5t-38 -382.5t38 -382t123 -314l-69 -80q-139 84 -271 123t-274 39t-274 -39t-271 -123l-69 80q85 153 123 314t38 382q0 220 -38 381t-123 316z" glyph-name="lozenge" horiz-adv-x="2048" unicode="◊"/>
<glyph d="M623 -14q-65 96 -103.5 226t-38.5 253q0 93 27.5 184t79.5 172q36 -125 52.5 -223t16.5 -182q0 -102 -8.5 -209t-25.5 -221zM807 1571l-19 -193l-456 78l-15 -246l338 -24v-107l-346 -6l-41 -1087h-67l-90 1644zM561 936q12 23 30 33t46 10q27 0 43 -14t16 -37 q0 -39 -18.5 -55.5t-63.5 -16.5q-53 0 -87.5 22.5t-34.5 55.5q0 25 21 46t67 40v-4l10 -17q-31 -12 -44.5 -27t-13.5 -38q0 -28 15.5 -42.5t44.5 -14.5q27 0 37.5 6.5t17.5 23.5l-4 18q-9 6 -16 8.5t-13 2.5q-7 0 -14 -4t-13 -10z" glyph-name="fi" horiz-adv-x="840" unicode=""/>
<glyph d="M813 1563l-35 -160l-448 41l-11 -297l318 12v-125l-315 -12l-37 -1028l-86 -21l-88 1606zM1190 209l-19 -221l-505 12l176 1550l96 -16l-74 -1374z" glyph-name="fl" horiz-adv-x="1208" unicode=""/>
<glyph d="M186 0v887h-125v123h971v-123h-125v-887h-157v887h-406v-887h-158z" glyph-name="c6237" horiz-adv-x="1094"/>
<glyph d="M420 831l-168 -192l-184 152l159 184z" glyph-name="periodcentered" horiz-adv-x="489"/>
</font>
</defs>
</svg>
